<svg width="14" height="14" viewBox="0 0 14 14" fill="none" xmlns="http://www.w3.org/2000/svg">
<path d="M6.45988 1.53591C6.64654 1.04357 7.35296 1.04357 7.54021 1.53591L8.74771 4.88074C8.78984 4.9897 8.86402 5.08332 8.96045 5.14925C9.05689 5.21517 9.17106 5.2503 9.28788 5.24999H12.2553C12.8036 5.24999 13.0428 5.93249 12.6117 6.26674L10.5 8.16666C10.4055 8.23937 10.3363 8.34018 10.3026 8.45462C10.2688 8.56906 10.2722 8.69125 10.3122 8.80366L11.0834 12.0721C11.2712 12.5971 10.6634 13.048 10.2037 12.7248L7.33546 10.9048C7.23724 10.8358 7.1201 10.7987 7.00004 10.7987C6.87999 10.7987 6.76285 10.8358 6.66463 10.9048L3.79638 12.7248C3.33729 13.048 2.72888 12.5965 2.91671 12.0721L3.68788 8.80366C3.72788 8.69125 3.73125 8.56906 3.69751 8.45462C3.66376 8.34018 3.59464 8.23937 3.50004 8.16666L1.38838 6.26674C0.956711 5.93249 1.19704 5.24999 1.74421 5.24999H4.71163C4.82846 5.25038 4.94267 5.21528 5.03912 5.14935C5.13558 5.08341 5.20974 4.98975 5.25179 4.88074L6.45929 1.53591H6.45988Z" fill="#FFD057" stroke="#FFD057" stroke-linecap="round" stroke-linejoin="round"/>
</svg>
