<svg xmlns="http://www.w3.org/2000/svg" width="223.588" height="103.96" viewBox="2184 2584 223.588 103.96"><g data-name="Group 9"><path d="M2298.995 2634.542c0-.61.687 0 1.373-.61.61 0 1.22-1.373 1.906-1.981 1.295-1.296 1.295-2.593 2.591-3.89.687-1.904 1.906-3.276 3.279-5.182.609-1.296 1.219-3.279 2.592-4.498-.686-.686-.686 0-1.373.61h-1.22c-1.372.609-1.982 1.296-3.278 1.296 0-1.906 2.592-1.296 3.279-3.279.609 0 .609.687.609.687 1.297-.687 1.983-1.296 3.201-1.296 1.373-.61 1.983-1.982 3.28-2.593 0 1.296-.687 1.296-1.297 1.983 0 0-1.296 1.22-1.983 1.906-1.218 2.592-1.904 5.184-4.497 7.09-1.296 3.964-3.888 6.555-6.479 9.757-.61 0-1.296.61-1.983 0Zm62.892-29.12v.61c0 .61-.686.61-.686.61 0 1.371-.61 1.371-.61 1.371-.61 1.22-1.296 1.22-1.296 2.592l-.686.61h-.61c-1.296 3.202-3.887 5.184-5.793 7.776-3.279 1.982-5.184 3.888-9.148 5.794 0 0 0 .685-.61 1.372-1.296 0-1.296-1.983-1.983-3.278-.609-.686-1.219-1.906-1.905-3.279-.687-2.592-1.905-4.498-3.278-6.402 0-.687-.61.608-.61.608-.61-1.295-.61-2.591-.61-2.591s0-1.296-.686-1.296l-.686-1.296h-1.22c-.686 0-1.982 1.296-2.592 1.982-2.591 2.593-5.869 5.794-8.462 8.386-1.295 1.982-3.277 3.202-5.183 5.183-.686 1.296-1.296 1.983-2.592 3.202-.687.686-1.905 1.373-2.591 2.592-1.906 1.372-3.279 3.278-5.185 4.574-1.906 1.982-3.887 2.592-5.87 4.573-1.22.61-2.592 1.906-4.498 3.202l-.685.61c-1.906 1.373-3.812 3.279-6.404 4.575-.685 1.296-1.981 2.591-3.277 3.887h-.687c-1.22.686-2.592 1.906-3.202 3.279l-1.981 1.219c0 .685-.61 1.372-.61 1.372-1.982 1.906-3.888 3.202-5.184 4.498-.61.686-.61 1.296-1.296 1.296-.687.61-.687 1.296-.687 1.981-.609 0-1.219.61-1.904.61-.687 1.983-1.906 3.202-3.279 3.888-.61 1.296-1.906 2.593-2.591 3.889-1.22 1.296-1.907 3.202-2.592 4.573l-1.22 1.22c-.686 1.372-.686 2.592-1.373 3.278-.609.686-1.22 1.906-1.905 3.278-.687.61-1.296 0-1.296 0-3.202 1.906-7.166 2.592-10.978 1.906-1.372-1.296-3.964-1.296-4.574-3.278 0-1.906 1.297-2.592 1.983-3.812 1.219-.686 1.906-1.982 1.906-1.982s.685-1.296 1.295-1.981c.61-.61 1.982-1.906 2.592-3.202 1.296-1.296 2.592-1.983 2.592-3.202 1.982-.687 2.591-1.983 4.574-3.279 0 0 .61-.685.61-1.295 1.296-.61 1.982-1.296 2.592-2.592 2.592-1.983 5.794-3.888 8.385-6.48v-.686c1.373-.61 2.592-1.906 3.279-2.592 2.591-1.22 3.887-3.202 5.183-4.497 1.296-1.296 1.906-1.906 3.887-3.279 0 0 .61-1.22 1.296-.609.687-1.983 1.906-2.593 3.279-3.889.61-1.295 1.906-1.906 2.591-3.277 1.22-.61 1.22-1.22 1.22-1.22s1.372-.686 1.982-.686c0-.686.61-1.296 1.296-1.906l.686-.686c0-.687.61-.687.61-.687l.61-.608c.686-.61 1.982-1.296 1.982-1.296.61-1.297.61-1.906 1.295-2.593l1.906-1.905c.687 0 .687-.687.687-.687l1.296-1.906c.61-.685.61-.685 1.296-1.371l.686-1.22c0-.686 1.22-1.373 1.22-2.592 1.371 0 1.371-.686 1.371-.686.61-1.906 1.906-2.593 1.906-2.593 1.296-2.591 2.592-3.277 3.279-4.497.609 0 1.219-1.372 2.592-1.372.61-1.22 1.218-1.906 1.905-2.591 0-1.22 1.296-1.906 1.296-1.906 1.296-1.906 1.982-2.593 3.202-3.279 1.371-1.906 2.592-3.202 3.964-4.497 0-1.296-.687-1.296-.687-3.278 0 0 .687-.61 1.296-1.22 0 0 .61-.686.61-1.373 1.373-.609 1.983-1.904 3.279-3.202v-.608c.686 0 1.296-.687 1.296-1.373.61 0 .61-.61 1.296-1.219h.685s.61-.687 1.22-.687c0 0 1.372.687 1.982 1.296 3.202-2.592 5.185 3.202 7.776 4.574 1.296 1.906 3.202 3.202 5.184 5.794 0 0 0 1.296-.61 1.981.61.61 1.22-.685 1.905 0 0 .61.687.61 1.296 1.22.61.686.61 0 1.296 0 .687.686.687 1.373 1.296.686l.61 1.906c1.983 0 2.592.686 3.964 1.373.61.61 1.22.61 1.22.61h.686l.686.609c1.906 0 2.592 1.372 3.812 1.372h.686Zm-14.256 7.776h.61c-.61-.687 0-1.983 0-1.983-.61.61-1.219 0-1.219 0 0 .61-.687 1.983.61 1.983Zm-1.981-2.593s0-.686.685-.686v-5.183c-.685 1.906-1.295 3.887-.685 5.869Zm-1.22-2.592c0 1.22-1.372 2.592-.686 3.202 0 0 1.296-1.982.685-3.202Zm-.686-9.758s0-.61-.686-.61c0 .61 1.371.61.686.61Zm-.686 9.072c0 1.906-1.22 3.888-.61 5.87.61-1.982.61-4.574.61-5.87Zm-4.498-16.238s-.687-1.219-1.905-1.219c-.688 1.22 1.218 2.592 1.905 1.22Zm-3.278-2.591v.687c1.373 0 .685-.687.685-.687h-.685Zm-.61-1.906v.687c.61 0 .61-.687 0-.687Zm-23.326 23.327c1.981-1.296 3.201-3.277 4.573-4.498.61-1.372 1.22-1.981 1.906-2.591.685-.687 1.906-1.983 2.591-2.592v-.687c.687 0 1.296-.685 1.296-.685-3.202 2.591-6.479 5.87-9.758 9.757 0 0-1.218.61-.608 1.296Zm-5.794 7.09c2.592-1.22 5.184-2.592 7.775-3.811 1.22-1.983 2.592-3.279 4.498-5.185v-.686c.685-.685.685-1.906.685-1.906 1.22-.685 1.22-1.981 1.22-1.981 1.373-2.593 3.28-3.202 3.965-5.185-1.373 0-1.373.61-1.983 1.296 0 0-.609 1.296-1.296 1.906 0 0-.685.686-1.295 1.373-.61.61-1.296 1.906-2.592 2.591-1.296 1.906-3.202 3.202-4.575 5.184l-1.904 1.22h-1.297c-.61.686-1.296 1.981-1.982 2.592 0 0-1.906 1.372-1.219 2.591Zm-27.902 30.493c1.296-1.296 1.983-1.983 3.202-2.592 3.279-1.983 5.87-4.574 9.148-7.166 0 0-.686-.61 0-1.22.61 0 .61-.686.61-.686 1.296 0 .61-.686 1.296-1.296 1.296-.61 1.906-1.983 3.278-2.591 1.22-1.296 1.906-2.593 2.592-3.89-1.373 0-1.373 1.297-1.981 1.907-1.983 1.983-4.575 3.278-6.481 5.87-.686 0-.686 1.296-1.906 1.296-1.371 2.592-3.964 3.887-5.183 6.479-1.983.687-2.592 1.906-4.575 2.593v1.296Zm-19.438 30.492c-1.906 1.22-2.592 3.812-3.888 5.793v.61c1.296-.61 1.296-1.219 1.296-1.219.686-.686 1.296-1.982 1.296-1.982.609-1.982 1.296-2.592 1.296-3.202Zm7.775-13.645v-1.296c.687-.61.687-.61 1.296-1.296v-.687l.61-.609.687-.61c0-.686.685-1.373.685-1.373s.61-.608.61-1.219c.61-.687 1.296-1.372 1.296-1.372-1.906.685-5.184 1.372-6.48 3.964.61 0 1.296 0 1.983.61-.687 1.296-1.373 2.592-1.983 3.888-.609.685-1.296 1.906-2.592 2.591-.61 1.906-1.981 2.592-2.591 4.498-1.296 1.373-1.983 3.964-3.202 5.185 0 0-.686 1.981-1.373 1.981-.609 1.982-1.219 2.592-1.906 4.574-.685 0-1.296 1.905-1.905 1.22 1.22-3.202 3.202-5.794 4.498-7.775 1.296-3.812 3.888-5.795 5.183-8.996 1.296-1.372 1.907-1.982 2.592-3.278.687-1.296 1.296-2.592 1.906-3.888-1.906-.61-3.202 1.296-5.183 1.982-1.906 1.906-3.812 3.812-5.794 5.184l.61 1.905c-.61.687-.61 1.906-1.22 2.593 0 1.905-1.372 1.905-1.372 3.887 0 0-1.22.61-1.22 1.982-1.372 0-1.982 1.22-1.982 1.22l-.61.686v.686s-1.372.61-1.982 1.22c0 0 0 .686-.61 1.372 0 0-1.982 1.22-3.277 0 0-1.372.685-2.592 1.906-2.592.685 0 .685 1.22.685 1.22 1.296-.61 2.592-1.22 3.278-2.592.61-.61 1.22-1.906 2.592-2.591.61-2.593 1.905-4.498 2.592-7.777 0 0-1.372.686-1.372 1.373l-.61.609c0 .61-1.296 1.297-1.296 1.983-.686 0 0 .61-.686.61 0 .609-.61 1.296-.61 1.981-.61.61-1.296 1.22-1.982 1.906-1.22.686-1.22 2.592-2.591 2.592v-1.296c.685-.61 2.591-1.981 1.981-3.202-1.296 3.202-4.574 5.184-6.479 8.385 0 .61 1.296.61.686 1.296 1.906.687 2.591 1.297 3.812 1.297.685 0 0 0 0 0l1.37-.61c.611-.687 1.221-1.372 1.907-1.983 1.906-2.591 4.498-5.183 5.87-7.775.61-.61.61-1.295.61-1.295s.61-.687 1.296-1.296c0 0 0-.61.686-1.296 1.219-2.593 3.202-5.185 3.812-7.776 1.371.685.685 1.906.685 1.906-1.295 1.981-1.906 3.277-2.591 3.964v.609c-.687 0-.687.61-.687.61s-.609 1.373-1.22 1.373v.61l-.685.609c-.687 1.372-1.906 3.278-2.593 4.574l-.685.61-.61.686c0 .686 0 .686-.61.686 0 0-.686.61-.686 1.22v.686c-.686.686-1.906 1.295-2.592 2.591l-.686.687c2.592 0 3.964.61 5.87 0v-.687c1.296-5.183 4.497-8.46 7.775-11.053 1.296-3.811 3.279-7.09 5.184-9.681Zm-.686 3.887c-1.219 0-1.219 1.296-1.219 1.296s.609-.686 1.22-1.296Zm62.206-61.594c0-.61-1.22 0-1.22-.61-.686 0 0-.61-.686-1.296-.687 1.296-1.296 2.591-2.592 3.277 0 1.22-1.297 1.22-1.297 3.202l-1.296 1.296c1.296-.686.687-1.906 1.906-1.296 0 .61-.61.61-.61.61s-.609.686-1.296 1.373l-.685.608c-.61.61-1.22 1.983-1.906.61 0-1.218 1.296-1.218 2.591-1.218 0-1.373-1.295-.687-1.295-.687.61-1.296 1.295-1.906 1.982-2.592l1.906-1.906c0-.686.686-1.371 1.296-1.981l1.296-1.983c.686 0 1.296-1.22 0-1.22.686 1.22-.687 0-1.296.61 0 0-.61 1.297-.61 1.982-1.983.61-1.373 1.906-3.279 2.592.687-1.371.687-1.981 1.906-1.981 0-1.983 1.983-3.202 2.592-4.575-.609-.61 0-1.906 0-1.906-1.905.687-2.592 3.279-4.498 3.889 0 0-.685 1.981-1.295 1.981v1.906c-1.296 1.296-3.202 3.278-3.888 5.184 0 0-1.296.687-1.906 1.295-.686.61-.686.61-1.373 1.296-1.904 1.297-4.497 1.906-6.402 2.593-.687.686-.687 1.296-1.372 1.296h-.61c-.61 1.296-1.982 2.592-2.592 3.888 1.981 0 4.574-1.906 5.793-.686 0 1.371-1.219 1.981-1.219 2.592-1.372 0-.687 1.372-1.983 1.981 0 .61 0 .61-.61 1.296 0 0-.685 0-.685.687-.686 1.219-1.906 1.906-2.592 3.81-1.296.687-1.906 3.279-3.887 2.593.608-1.22 2.591-2.593 3.887-3.812.686-3.964 4.498-5.183 5.183-8.461-1.906 0-2.591 1.295-4.497 1.906 0 0-1.373.685-.686 1.372 0 0 .686-1.372 1.906 0l-.61.609c-.61 0 0 .61 0 .61h-.61c-.686 1.373-1.982 1.982-2.592 3.279-1.373 1.296-2.592 2.591-3.964 3.887 0 0-.61.61-.61 1.296-.61 0-.61.686-.61 1.296 0 0-1.982 1.296-2.592 1.981-.686.61-1.372.61-1.372.61-1.905 1.983-2.591 2.592-3.812 3.202-3.277 2.592-5.87 4.575-9.147 7.166-1.906 1.296-4.498 2.592-5.794 4.575 1.296 0 2.592-1.373 3.202 0-1.22 1.904-1.906 2.591-3.202 3.81 0 1.373-.61 1.983-1.295 2.592-.687 1.373-1.297 2.593-1.906 3.964l-1.373 1.22c1.982-1.22 3.964-4.497 5.87-6.403 1.296-2.592 3.888-5.183 5.87-7.166.61-1.296 1.905-2.592 2.592-3.202h.61c.61-.685 1.296-1.371 1.982-1.371 0 0 .61-1.22 1.219-1.906.687-.687 1.372-.687 1.372-.687l1.907-1.906c1.905-1.296 2.591-2.592 3.887-3.277 0 0 .61-1.22 1.296-.61-.686 1.295-1.906 2.591-3.278 3.887-2.591 1.906-5.184 4.499-7.776 6.48-1.219 1.296-2.591 2.592-3.812 3.202-2.591 3.277-5.183 5.87-7.165 9.758.61 0 1.296-.61 1.982-1.296v-.687c.61-.609.61-.609 1.22-.609v-1.296s1.982-1.295 2.592-1.906l1.371-1.372.61-.61s0-.61.61-.61c1.373-1.372 2.592-2.592 3.28-3.963 1.295 0 1.904-1.22 1.904-1.22 3.279-1.982 4.574-4.574 7.166-5.871 1.296-1.905 2.592-3.277 4.574-4.498l.61.61.61-.61c.686-.685 1.372-1.371 1.982-1.371h.61c.686-.61.686-1.22.686-1.22h1.296l.61-1.982c1.981 0 1.981-1.296 3.277-1.983v-.608c1.296-1.296 2.592-3.202 3.888-4.575 0-.61.61-1.219 1.297-1.906.686-1.296 1.296-2.591 1.296-2.591.608-1.906 1.295-3.279 1.981-3.888 0 0 .61-.61.61-1.296l.61-.687c0-.609.686-1.906.686-1.219.686 1.22-.686 1.22-.686 2.592 0 0-.61.61-.61 1.219v.687c-.61.686-1.296 2.592-1.983 3.887-.608.61-.608 1.983-1.218 2.592 0 .61-.686.61-.686.61l1.904-1.219c0-1.372.687-1.983.687-1.983.686-1.295 1.296-2.591 1.296-2.591.61-1.296 1.296-1.296 1.296-1.296s.686-.687.686-1.296c0 0 .61-1.296 1.22-1.296 0 0 .686-.687 1.371-1.296 0 0 .61-.61 1.22-.61.686-.687 1.373-2.591 2.592-1.983 0 1.296-1.219 1.983-1.906 1.983l-1.906 1.906c-1.37 1.296-2.591 2.592-3.277 4.498.686 0 .686-1.22 1.906-1.22 0-1.373 1.371-1.982 1.371-1.982l.61-.61c.61 0 .61 0 .61-.686 0 0 .686 0 1.373-.687v-.609h.61c.61-.61.61-1.297.61-1.297s.686-.685.686-1.296h1.296c0-1.981 1.296-1.981 1.296-3.201 0 0-.687 1.22-.687.61.687-1.982 2.593-2.592 2.593-4.573Zm6.556-11.588s0-1.982-.687-2.592c0 1.22 0 2.592-.686 3.812 0 .686 0 1.981-.61 1.981 0-1.295.61-3.201 0-4.573 0 .686 0 1.372-.61 1.982-.686-.61.61-1.982 0-3.202 0 0 0-1.373-.686-1.373 0 1.373 0 3.279-.685 4.575-1.22-.61-.61-1.982-.61-1.982l-.61.686s-.686.686 0 1.296v1.981c-.686.61-1.372.61-1.372.61s.686.61.686 1.296c0 2.592 1.906 3.279 3.277 5.185h.61s.61-3.889.61-5.185c0-1.906.686-3.277 1.373-4.497Zm5.183 13.57c.61-4.575 1.22-8.386 1.22-12.96-.61-.61-1.22-.61-1.906-1.296-.687 1.296 0 3.277-.687 4.498 0 .685 0 1.372-.608 1.372 0-1.983.608-4.574.608-7.166-1.906.61 0 3.888-1.906 3.888-.685-.686.688-2.592 0-3.888-.685 1.982 0 4.573-1.295 5.794 0-1.906.61-3.812.61-6.404v-.686c-1.22 3.278-1.22 6.48-1.906 9.681 0 0 1.296 0 .687.686.609 1.906-.687 3.889 0 5.87.609-1.981 0-4.573 1.219-5.87v-1.905c0-1.372 0-2.593 1.373-2.593 0 1.906-.688 3.812-.688 5.795v1.981c0 1.906-1.295 4.498.688 5.794 0-1.296 0-3.202.61-3.888.608 1.906-1.298 4.498 0 6.48.608-1.296.608-2.592.608-3.888.687-1.296 0-2.592 0-2.592 1.373-.685.687 1.906 1.373 1.296Zm.61 3.887v1.295h-.61.61v-1.295Zm.61-1.906s0 1.906.686 2.593c0-1.373.686-1.983.686-3.279.61-1.906.61-4.498.61-6.48-.61 1.982-.61 4.574-1.296 5.794-1.296 0-.687-2.591-.687-2.591.687-1.906 1.373-3.812 1.373-6.404l.61-.687c-.61-.685-.61-1.906-.61-1.906-.686-.685-.686.61-.686.61 0 5.794-1.296 10.368-1.296 14.256 0 0 0-1.906.61-1.906Zm19.515-4.573c-1.372 0-1.982-.61-3.278-.61-.685.61-1.295 1.22-1.906 2.591 0 0-.685 1.22-1.981 1.22 0 1.372-1.296 1.982-2.593 1.982 0 0 .61-1.296-.609-.61 0 0 .609.61.609 1.22l-1.296 1.981c-.686.61-1.905 1.296-1.905 1.296l-2.593 1.297c-1.37 1.296-2.591 1.982-3.964 3.201 0 1.373.687 2.593 1.373 3.964 1.906 0 2.591-1.371 3.812-1.371 0-.61 0-1.22.685-1.22h.687c1.22-1.373 3.2-2.592 5.184-3.965 1.219-1.906 3.202-3.81 5.183-6.403 0-.686-.686-.686-.686-.686.686-1.296 1.296-1.296 1.906-.686 0-1.22 1.372-1.906 1.372-3.201Zm-71.963 28.51c0-.61-.61 0-.61-.61l-2.592-1.981c-.685-1.296-1.372-2.593-2.591-3.89-.686-1.904-1.983-3.276-3.279-5.182-.685-1.296-1.296-3.279-2.591-4.498.685-.686.685 0 .685 0 1.22.61 1.906.61 1.906.61 1.296.609 1.906 1.296 3.279 1.296 0-1.906-2.592-1.296-3.279-3.279 0 0-.685.687-1.296 0 0 0-1.295-.609-2.591-.609-1.296-.61-1.982-1.982-3.202-2.593 0 1.296.61 1.296 1.22 1.983l1.982 1.906c1.296 2.592 2.591 5.184 4.574 7.09 1.22 3.964 3.81 6.555 6.404 9.757 0 0 1.371.61 1.981 0Zm1.982-.61-.686.61c-.686-.61-1.296-1.983-1.906-1.983-.685-1.904-1.981-2.591-2.592-3.81 0-.687-.685-.687-.685-.687s-.687-.686-.687-1.296c-1.22-.609-.609-1.981-1.905-1.981 0-.61-1.297-1.22-.687-2.592 1.373-1.22 3.279.686 5.185.686-.61-1.296-1.906-2.592-2.593-3.888h-.609s-.61-.61-.61-1.296c-2.592-.687-4.575-1.296-6.556-2.593-.61-.685-1.22-.685-1.906-1.296 0 0-.686-1.295-1.906-1.295-.686-1.906-2.592-3.888-3.964-5.184v-1.295a34.765 34.765 0 0 1-1.22-1.296c-1.982-1.906-2.591-4.498-4.574-5.185 0 0 1.296 1.296 0 1.906.61 1.373 2.592 2.592 2.592 4.575 1.296 0 1.296.61 1.983 1.981-1.983-.686-1.373-1.981-2.592-2.592-.687-.685-1.372-.685-1.372-.685-.61-1.906-1.22-.687-1.22-1.906-1.372 0-.687 1.219 0 1.219l1.22 1.983a24.37 24.37 0 0 1 1.981 1.981l1.296 1.906 1.906 1.906s-1.22 0-1.22 1.373c1.22 0 2.592 0 2.592 1.219-.685 1.372-1.372 0-1.982-.61l-.61-.61c-.686-.686-1.372-.686-1.372-.686s-.61-.686-.61-1.296c1.296-.61 1.296.61 1.983 1.296l-1.373-1.296c0-1.982-1.219-1.982-1.219-3.202-1.372-.686-1.983-1.981-2.593-3.277-.686.685 0 1.296-.686 1.296 0 .61-1.295 0-1.295.61.61 1.981 2.591 2.591 2.591 4.573v-.61c0 1.22.61 1.22.61 2.593 0 0 .686.608 1.373.608v.61l1.22 1.983h.685v.61l.687.686c.609.686.609.686 1.219.686v.61s1.982.609 2.591 1.982c0 0 .687 1.22 1.373 1.22-.686-1.906-1.982-3.202-3.277-4.498l-1.906-1.906c-.687 0-1.983-.687-1.983-1.983 1.296-.608 1.983 1.296 2.592 1.983.61 0 1.297.61 1.297.61.685.61 1.295.61 1.295.61.61.686.61 1.372.61 1.372.686 1.219 1.372 1.219 1.372 1.219l1.22 1.373s.686 1.906.686 3.201c.686 0 1.296.61 1.296 1.983.61.609 1.296 1.22 1.981 1.905 0 0-.685-.686-.685-1.296 0 0-.686-1.981-1.296-2.592-.61-1.295-1.296-3.201-1.982-3.887v-.687c0-.609-.61-1.22-.61-1.22 0-1.372-1.296-1.372-.61-2.59 0-.688.61.61.61 1.218.61 0 .61.687.61.687 0 .686.686.686.686.686.686 1.219 1.296 2.592 1.906 3.812 0 0 .686 1.981 1.371 3.277.61.687 1.22 1.296 1.22 1.906 1.373 1.373 2.592 3.279 3.965 4.575v.608c1.219.687 1.219 1.983 3.202 1.983l.61 1.982h.686l-.686.61c-1.22-.61-2.593-1.296-3.812-2.592-1.373-1.296-3.279-3.202-5.185-4.574-.685-1.22-1.981-1.906-1.981-1.906-1.982-1.905-2.592-2.592-3.202-3.888-1.982-1.981-3.277-3.201-5.183-5.183-2.592-2.592-5.87-5.793-8.462-8.386-.687-.686-1.906-1.982-1.906-1.982h-1.982c-.61 0 0 1.296-.61 1.296l-.687.686v2.593c-.685.608-.685-.687-1.296 0-1.295 1.904-1.981 3.81-3.201 6.402-.686 1.373-1.372 2.593-1.372 2.593-1.22 1.981-.61 3.964-2.591 3.964-.61-.687 0-1.372 0-1.372-3.812-1.906-6.404-3.812-8.997-5.794-2.592-2.592-5.183-4.574-6.556-7.776h-.609l-.61-.61c0-1.372-.685-1.372-1.372-1.982 0 0 0-.61-.61-1.296 0 0 0-.685-.61-1.295v-.61h.61c1.297 0 1.982-1.373 3.888-1.373l.686-.61c-.686.61 0 .61 0 .61l.61-.61s.61 0 1.296-.61c1.296-.686 1.906-1.372 3.887-1.372l.61-1.906c.686.687 1.373 0 1.373-.685.609 0 .609.685 1.219 0 .687-.61 1.373-.61 1.983-1.22 0 0 .609.61 1.296 0-.687-.686-.687-1.372-.687-1.372 1.982-3.202 3.964-4.498 5.87-6.404 1.906-1.372 3.887-7.166 7.09-4.574.686-.609 1.372-1.296 1.982-1.296 0 0 .609.687 1.296.687h.685c.61.609.61 1.219 1.22 1.219 0 .686.686 1.373 1.372 1.373v.608c1.22 1.298 1.906 2.593 3.202 3.202l.61.687c.686 1.296 1.373 1.296 1.373 1.296.609 2.592-.687 2.592-.687 3.888 1.296 1.295 3.278 2.591 4.497 4.497.687.686 1.373 1.373 1.983 2.592 1.296.687 1.982 1.372 1.982 2.593 1.22.685 1.906 1.371 1.906 2.591 1.295 0 1.906 1.372 1.906 1.372 1.372 1.22 2.591 1.906 3.278 3.812 1.296.685 1.905 1.372 2.592 2.591.685.687.685 1.373.685 1.373.61 1.219 1.907 1.906 2.592 2.592 0 0 0 1.22.61 1.22 0 0 0 .686.61 1.371l1.372 1.906c.61 0 .61.687.61.687l1.983 1.905c.609.687.609 1.296.609 1.296l-.61.61h-1.372c-.61-.61-.61-1.906-1.906-1.906 0 1.296 1.296 1.906 1.296 1.906V2631.95c-.61-.61-.61-1.295-.61-1.295-1.372-1.297-2.592-1.906-3.277-3.279v-.61s-1.296 0-.686-.609c.686-1.372.686.609 1.981 0 .61-.687-1.295-.687-1.295-.687-1.296-1.296-2.592-2.591-4.498-2.591 1.219 3.278 4.498 4.497 5.793 8.461.61.61 1.296 1.22 1.982 2.592Zm-37.658-46.653s0-.687.685-.687c-.685 0-1.296.687-.685.687Zm-1.22 1.906c.61 0 .61 0 1.22-.687 0 0-.61-.61-1.22-.61v1.297Zm-2.592 1.904c.61 1.373 2.592 0 1.906-1.219-1.296 0-1.296.61-1.906 1.22Zm-3.963 22.109c.685-1.983 0-3.965-.61-5.87 0 1.295.61 3.887.61 5.87Zm-1.22-14.943s.61 0 .61-.61c-.61 0-.61.61-.61.61Zm0 12.96c.61-.61 0-1.982-.686-3.202-.687 1.22 0 3.202.685 3.202Zm-2.592-3.888v2.592c.61 0 .61.686.61.686.609-1.982 0-3.963-.61-5.87v2.592Zm-1.983 5.87h1.297v-1.982s-.687.61-.687 0c0 0 0 1.296-.61 1.983Zm8.386 6.403c-1.22-1.22-2.591-1.905-3.812-3.2 0 0-1.981-.61-1.981-1.298-1.296 0-1.983-.685-3.202-1.296l-1.373-1.981c0-.61 1.373-.61 1.373-.61-1.373-1.296-1.373 0-1.373 0-1.22 0-2.591-.61-2.591-1.982-1.22 0-1.22-.61-1.22-.61-1.372-1.981-1.982-2.591-1.982-2.591-1.983-.61-2.592 0-3.887 0 0 1.295 1.295 1.981 1.295 3.201.61-.61 1.296-.61 1.982 0 0 0-.686.686-.686 1.372 1.906 2.593 3.888 4.497 5.869 6.403 1.906 1.373 3.202 2.592 4.499 3.965h1.296s.609.61.609 1.22c.687 0 1.372 1.371 3.278 1.371.686-1.371 1.296-2.591 1.906-3.964Zm0-7.09c.686-3.887-1.22-8.461-1.22-13.644 0 0 0-1.906-1.371-1.906.685.685.685 1.906 0 2.591.685 0 .685.687.685.687 0 2.592.686 4.498.686 6.404.61 0 1.22 2.591 0 2.591-.686-1.22-.686-3.812-1.371-5.793 0 1.981 0 4.573.685 6.479.686 1.296.686 1.906 1.296 3.279.61-.687-.61-1.983 0-2.593 1.296 0 .61 1.22.61 1.906Zm.686 1.296s0-1.295-.686-1.295v1.295h.686Zm5.87-12.349c-.687-3.202-.687-6.403-1.372-9.68v.685c-.61 2.592.685 4.498 0 6.404-1.22-1.22-.61-3.812-1.22-5.794-.686 1.296.61 3.202 0 3.888-1.372 0 0-3.278-1.982-3.888.61 2.592.61 5.183.61 7.166 0 0-.61-.687-.61-1.372-.61-1.22 0-3.202-.61-4.498 0 0-1.372.686-1.982 1.296 0 4.574.61 8.385 1.296 12.96.686.61 0-1.982 0-1.982 1.296.685.686 1.981 1.296 3.277 0 1.296.61 2.592.61 3.887 1.372-1.981-.61-4.573 0-6.479 1.372.686.686 2.592.686 3.888 1.906-1.296.686-3.888.686-5.794 0-.685.61-1.372.61-1.372-.61-2.592-1.296-4.498-1.296-6.404 1.295 0 1.295 1.22 1.295 1.906v2.592c1.296 1.297 1.296 3.889 1.296 5.87.687-1.981-.685-3.964 0-5.87 0-.686.687-.686.687-.686Zm5.794-2.591s-.61-.61-.61-1.22v-1.982c0-.61-.686-.61-.686-.61-.687-.686 0-1.982-.687-1.982 0 0 .687 1.982-.609 2.592 0-1.296-.61-3.202-.61-4.575l-.686 1.373c-.687 1.22.686 2.592 0 3.202-.687-.61-.687-1.296-.687-1.982-.609 1.372.687 3.278 0 4.573 0 0-.609-1.295-.609-1.981-.61-1.22 0-2.592-.61-3.812-.687.61 0 1.906 0 1.906 0 1.906.61 3.277.61 5.183 0 1.296.61 3.889.61 3.889l.686 1.296c1.296-1.906 3.277-2.593 3.277-5.185 0-.685.61-.685.61-.685Zm7.166.685v.687c1.219.609 1.906 1.905 2.591 2.592.61.61 1.22 1.219 1.906 2.591 1.906 1.22 3.278 3.202 4.498 4.498 1.371-.686-.61-1.296-.61-1.296-2.592-3.887-6.48-7.166-9.072-10.368 0 0 0 1.296.687 1.296Zm13.568 14.866c-.609-.61-1.296-1.906-1.296-1.906l-1.906-.686c-.685 0-1.371-.61-1.981-1.22-1.296-1.982-3.202-3.278-4.575-5.184-1.219-.685-1.904-1.981-2.591-2.591l-1.22-1.373c-.686-.61-.686-1.219-.686-1.219-1.296-1.372-1.296-1.983-2.592-1.983.687 1.983 2.592 2.592 3.279 5.185 0 0 1.219 1.296 1.219 1.981 0 0 .687 1.22 1.982 1.906v.686c1.296 1.906 2.592 3.202 3.888 5.185 2.592 1.219 5.183 2.591 7.776 3.81.686-1.219-.687-1.906-1.297-2.591Zm68 69.98c-.61 1.983-3.202 1.983-4.498 3.28-3.279.685-7.777 0-10.368-.688l-1.906-1.219c-.686-1.372-1.371-2.592-1.982-3.278 0 0-.61-1.906-1.295-2.592 0 0-.686-1.296-1.296-1.906-.61-1.371-1.296-3.277-2.592-4.573-.61-1.296-1.983-2.593-2.593-3.889a6.458 6.458 0 0 1-3.202-3.887c-.685 0-.685-.61-.685-.61-1.296-.686-1.296-1.372-1.296-1.982-1.296 0-1.296-.61-1.982-1.296-1.22-1.296-3.201-2.592-4.497-4.498-.687 0-.687-.687-1.297-1.372-.61-.61-1.296-1.22-1.982-1.22-.61-1.372-1.219-2.592-2.591-3.278h-1.22c-1.372-1.296-2.592-2.591-3.278-3.887-2.592-1.296-4.498-3.202-6.48-4.575v-.61s.61 0 .61-.609h1.372c0 .61.61 1.22 1.22 1.905 2.591 1.297 3.964 3.889 6.555 5.185.61.685 1.22 1.906 2.593 1.906.61 1.37 2.592 2.591 3.81 3.964v.609l.688.61c.686.685.686.685 1.296 1.372.608.61 1.981 1.22 2.591 1.906v.686s1.296.61 1.296 1.22c0 0 0 .686.686.686 0 .686.61 1.296 1.22 1.296-1.906-3.888-4.498-6.48-7.09-9.758-1.296-.61-2.592-1.906-3.888-3.202-2.592-1.981-5.183-4.574-7.775-6.48-.61-1.296-1.983-1.905-1.983-1.905-.608-1.372 0-1.372 0-1.372 1.373.685 2.592 1.981 3.279 3.277 0 0 1.906.687 1.906 1.297.686.609 1.371.609 1.981 1.296l1.983 1.906 1.22 1.371h.685c.687.61 1.906 1.906 2.593 3.202 2.591 1.983 4.497 4.574 6.479 7.166 1.981 1.906 3.202 5.183 5.183 7.09l-.609-1.907c-1.372-1.37-1.982-2.591-2.593-3.964-.685-.609-1.37-1.219-1.37-2.592-1.221-1.219-1.907-1.906-2.593-3.81 0-1.373 1.372 0 2.592 0-1.22-1.983-3.812-3.279-5.793-4.575-2.593-2.591-5.794-4.574-9.072-7.166-1.296-.61-1.906-1.219-3.279-2.591l-1.22-1.22.611-.686c2.592 2.591 5.183 4.497 7.775 6.48 1.296.609 1.983 1.296 3.202 2.592v-.61c-1.906-1.373-2.592-2.592-3.81-3.279-1.373-1.905-3.28-3.277-4.575-5.183 0 0 1.296 0 1.296-.686 1.295 1.371 1.906 2.592 3.278 3.277.61 1.296 1.905 1.906 2.592 3.89 1.219-.611 1.219.608 1.906.608a66.042 66.042 0 0 0 3.277 3.279c1.906 1.295 3.202 3.277 5.183 4.497a41.63 41.63 0 0 0 2.593 2.592s.61 0 1.22.685c1.982 2.593 5.184 4.498 7.776 6.48.685 1.297 1.37 1.982 2.591 2.593.686.61.686.61 1.373 1.295 1.219 1.296 1.904 2.592 3.81 3.279.687 1.219 1.983 1.906 2.592 3.202.687 1.296 1.983 2.591 2.593 3.202.686.685.686 1.37.686 1.37l2.591 2.593c.687 1.22 1.906 1.906 1.906 3.812Zm-25.92-16.16c0 .61.687.61.687.61l-.687-.61Zm10.368 15.55c-1.22-1.981-1.906-4.573-3.812-5.793 0 0 .61 1.22.61 2.592.61.61 1.296 1.906 1.296 2.592.686 0 1.296.61 1.296 1.22.61 0 .61 0 .61-.61Zm14.332 0c-1.982-3.201-4.574-5.183-6.557-8.385-.609 1.22 1.373 2.592 1.373 2.592l.61.61v1.296c-1.296 0-1.296-1.906-2.592-2.592l-1.296-1.906c-.687-.685-1.295-1.372-1.295-1.981l-.61-.61c0-.686-.688-1.373-1.373-1.983 0 0 0-.61-.61-.61 0-.686-.61-1.372-1.296-1.372.687 3.279 1.906 5.184 2.591 7.777 1.298.685 1.906 1.981 2.593 2.591 1.296 1.372 1.905 1.982 2.592 2.592 1.296 0 .686-1.22.686-1.22 1.906 0 2.591 1.22 2.591 2.592-1.37 1.22-2.591.61-3.277 0 0-.686-.687-1.372-.687-1.372-.609-.61-1.219-.61-1.219-.61-.686-.61-.686-.61-.686-1.296 0 0-1.295-1.906-2.593-1.906 0-1.371-.685-1.982-1.295-1.982 0-1.982-.61-1.982-.61-3.887-1.372-.687-1.372-1.906-1.372-2.593-.61-.686 0-1.296 0-1.296a209.74 209.74 0 0 0-5.793-5.793c-1.296-.686-3.202-2.592-5.185-1.982.61 1.296 1.297 2.592 1.983 3.888.61 1.296 1.906 1.906 2.592 3.278 1.22 3.2 3.812 5.184 5.183 8.996 1.906 1.981 3.202 4.573 4.497 7.775l-1.295-1.22c-1.296-1.982-1.982-2.592-2.592-4.574l-1.296-1.981c-1.296-1.22-1.906-3.812-3.277-5.185-.61-1.906-1.906-2.592-2.593-4.498-1.219-.685-1.905-1.906-2.592-2.591-.61-1.296-1.219-2.592-1.219-3.888 0 0 .61-.61 1.22-.61-1.22-2.592-3.813-3.279-5.794-4.574l.61 1.982.686.61s.685 1.296.685 1.982l.61.61.61.61v.686c.686.686 1.373.686 1.373.686l.61 1.906c1.296 2.591 3.201 5.87 4.574 9.68 3.201 2.594 6.403 5.87 7.089 11.054.687 0 .687 0 .687.687 1.904.61 3.81 0 5.793 0 .61 0-.61-.687-.61-.687-.686-1.296-1.981-1.905-2.591-2.591v-.686c0-.61-.688-.61-.688-.61s0-.61-.685-1.296c0 0-.61-.686-1.22-1.296-.686-1.296-1.982-3.202-2.592-4.574l-.686-.61v-.61s-.685-.685-1.296-.685l-.61-1.297v-.61c-.685-.686-1.37-1.982-1.981-3.278 0 0-1.296-1.906 0-2.591.61 2.591 2.591 5.183 3.887 7.776l.686.686c.61 1.219 1.22 1.219 1.22 1.219l.686 1.982c1.296 2.592 3.889 5.184 5.87 7.775.61.61 1.22 1.296 1.906 1.983h1.296v.61c1.296 0 1.981-.61 3.887-1.297-.685-.685.687-.685.687-1.296Z" fill-rule="evenodd" data-name="Path 267"/><path d="m2250.169 2665.786.61-1.295.61-.686s0 .686.686.686v.686s0 1.22-.686 1.22c0 0-.61 1.372-1.22 1.981l-1.982.61c-1.296.687-2.591.687-3.887.687-1.906 0-3.889-.687-5.185-1.297-1.906-.609-3.277-1.296-3.887-2.592-1.296-.609-1.983-1.981-3.202-3.887l-1.373-2.592c-.61-3.278-1.219-4.497-1.219-5.87v-4.498c0-1.906 0-3.887.61-5.183 0-1.906.61-3.278.61-4.498.686-1.372 1.372-2.593 1.982-3.964h-1.296c-1.297 0-2.593.686-3.888.686-1.296.685-2.592.685-3.888 1.296l-2.592 2.591s-1.906 1.983-3.278 3.202c-1.22 1.373-3.202 1.983-4.498 3.279-1.906 1.296-3.277 2.591-5.183 3.277-1.906 1.22-3.888 1.906-5.87 2.593-1.22.609-3.202 1.219-5.183 1.219-1.907 0-3.812-.61-5.185-1.219-1.905-.687-3.202-1.983-3.81-3.279-1.373-1.295-1.984-2.591-2.593-4.497-.686-1.982-1.372-3.964-1.372-5.87 0-1.907.686-3.888 1.372-5.87 1.22-1.905 2.592-3.811 3.811-5.794 1.373-1.296 3.279-3.2 5.185-4.573 1.981-1.22 3.963-2.592 5.869-3.202 2.593-1.296 4.497-1.983 7.09-2.592 1.982 0 3.963-.61 5.87-.61 1.905 0 3.278.61 4.497 1.22 1.372.686 2.592 1.982 3.278 2.592l1.296 2.592c.61 1.981.61 2.591.61 2.591v1.373h-1.22c-.686-.687-1.372-1.983-1.981-2.592-.61-.687-1.983-.687-3.202-1.372-1.373-.61-2.592-.61-5.185-.61-1.981 0-3.963 0-6.556.61-1.904.685-3.81 1.372-5.793 1.981-1.981 1.296-3.888 1.983-5.183 3.202-1.296 1.373-3.202 2.592-3.202 2.592-1.983 2.593-3.279 3.964-3.279 5.184-.685 1.371-1.296 2.592-1.296 3.278 0 1.906.61 3.278 1.296 5.184l1.296 1.296s.61 1.296 1.297 1.981c0 0 1.905.61 2.592.61 0 0 1.906.61 3.277.61 1.906 0 3.812-.61 5.794-1.22 1.982-.685 3.888-1.37 5.794-2.591 1.982-.686 3.963-1.982 5.184-3.278 1.981-.686 3.277-1.906 3.964-2.592-.687 0-1.983.686-3.279.686h-2.591c-1.906.61-3.278.61-4.498 0-1.373-.686-2.592-1.372-2.592-1.372-1.982-1.22-2.591-1.906-2.591-3.202-.687-.61-.687-1.296-.687-2.592v-1.295l.687.685c.609.61.609 1.22 1.906 1.22a6.16 6.16 0 0 0 2.591.686c2.592.686 4.498.686 5.87.686h5.184c1.219 0 2.591-.686 3.81-.686 1.373 0 1.983 0 3.28-.685 3.278-2.593 5.87-5.795 7.775-7.777 1.296-1.219 1.905-2.591 3.278-3.201.61-1.296 1.906-1.982 2.591-3.202.61-.686 1.22-1.373 1.906-2.592 0-.686.686-1.372.686-1.372 0-.61 0-.61.61 0 0 0 1.296.686 1.983 1.372l1.906 1.906c.686 1.296.686 2.592.686 3.277v1.906c-.686.687-.686 1.296-1.373 1.906-.61 1.373-.61 1.982-1.22 3.279-.686.686-.686 1.296-1.372 1.905l5.184-.61H2248.187v-.61h1.296v.61c0 .61-.686 1.297-.686 1.297-1.22 0-1.906.685-3.201 1.295h-1.983l-1.906.61c-.686 0-1.296.686-1.906.686l-.686 1.296c-1.296 1.981-1.906 3.888-2.591 5.794-.686 1.372-.686 1.982-.686 3.278 0 0-.61 1.906-1.22 2.592 0 1.296 0 1.906-.686 3.277v1.906c0 3.889.686 6.48 1.296 8.462.61 1.906 1.296 3.812 2.591 5.184.61 1.22 1.982 1.905 3.202 2.592.686.609 1.982 1.22 1.982 1.22h1.983c.61 0 1.219 0 1.905-.611l1.296-.609 1.982-.687v-1.296Zm-16.237-34.304s.686-.685 1.296-1.372c0-.61.61-1.22.61-1.905.686-.687.686-1.906 1.371-2.593.61-.686.61-1.296.61-1.296 1.296-2.591 2.592-3.887 3.888-5.793l-13.645 13.57 3.964-.61h1.906Z" fill-rule="evenodd" data-name="Path 268"/><path d="M2256.572 2654.123c.686 0 1.373-.686 2.592-1.296.687-1.296 1.983-1.982 3.279-3.202 1.295-1.371 2.591-3.277 3.887-4.573 1.296-1.983 2.592-3.202 3.887-5.185l.687-.609h.61v.61s0 .61-.61 1.296c0 0 0 .686-.687 1.296-.685 1.296-1.904 1.982-2.591 3.202-.686 1.371-1.906 2.592-3.277 3.963-.61 1.22-1.906 1.906-3.202 3.202s-1.983 1.983-3.202 2.593c0 0-1.983 1.296-2.592 1.296 0 0-.687-.687-1.372-.687l-1.22-.61c-.686-.61-.686-1.296-1.372-1.982v-3.202c-1.22 1.296-1.906 2.592-2.592 3.202-.61.686-1.906 1.373-2.592 1.983l-1.905 1.296c-.687 0-.687-.687-.687-.687-1.22 0-1.906-.61-2.592-.61-.61-.61-.61-1.296-1.22-1.982v-2.592c0-1.22 0-2.591.61-3.812.61-1.37 1.296-2.591 1.983-3.964 1.219-1.219 1.906-2.592 3.202-3.81 1.295-.688 2.591-1.983 3.887-3.28.686-.685 1.906-1.295 3.277-1.905.61-.686 1.906-.686 1.906-.686h2.592s1.297.686 1.297 1.296l1.296 1.296c1.905-3.277 3.277-5.87 4.498-8.462 1.37-1.22 1.37-2.592 1.981-3.202.61-1.296 1.296-2.591 1.983-3.202.609-1.37.609-1.981 1.219-2.591v-1.982l.685-.61c.687 0 1.296 0 1.907.61 0 0 .686.61 1.372 1.296 0 1.296.61 1.906.61 3.888 0 .61-.61 1.295-1.296 2.591-.686 1.296-1.297 3.202-1.906 4.575-1.372 1.906-1.982 3.201-3.278 5.183-1.296 1.906-2.592 3.812-3.277 5.793-1.22 1.983-2.593 3.89-3.202 5.185-1.296 1.981-1.983 3.202-3.202 4.573-.687 1.22-.687 2.593-1.373 3.202v1.296Zm-11.587 0c.61 0 1.22-.686 2.592-1.296.61-.61 1.906-1.982 2.592-3.202 1.22-1.371 2.591-2.592 3.812-3.963.685-1.22 1.981-3.202 2.591-4.498.686-1.297 1.373-1.906 1.373-1.906.61-1.982.61-1.982 0-1.982 0 0-.687 0-1.983.61-.609.685-1.296 1.372-2.591 1.981-.61 1.297-1.982 2.593-1.982 2.593-1.906 1.982-2.592 3.202-3.812 4.573-.686 1.22-1.372 2.592-1.981 3.812-.61.686-.61 1.982-.61 1.982v1.296Z" fill-rule="evenodd" data-name="Path 269"/><path d="m2272.124 2633.388.687-.685c.685 0 1.295.685 1.904.685 0 0 1.373.686 1.983 1.296.61.61.61 1.981.61 2.592 0 1.295 0 1.982-.61 3.201-.61.687-1.296 1.983-1.983 3.28-.609.685-1.219 1.905-1.904 3.276-.687 1.22-1.297 1.906-1.297 1.906-1.296 1.906-1.296 2.592-1.296 2.592l-.686 1.296s1.982-.61 2.592-1.296c1.372-.686 1.982-1.906 3.278-3.277 1.296-1.22 2.592-2.592 3.888-4.498 1.296-1.296 2.591-3.279 3.887-4.498 1.296-1.982 1.906-3.278 2.593-5.184l1.296-2.592c0-2.591 0-3.964-.61-4.574a24.368 24.368 0 0 1-1.983-1.982c-.609-.61-1.296-1.219-1.296-1.219h-2.591v-.687l.685-.685c1.22 0 1.906 0 3.202.685 1.297.687 1.983 1.296 3.202 1.906 0 0 1.983 1.982 2.593 3.279 1.371 1.296 1.371 2.592 1.371 4.498 0 1.37 0 2.591-1.371 4.573-.61 1.295-1.906 2.591-3.202 4.574-1.296 1.22-3.202 2.592-4.574 4.498-1.906 1.296-3.202 2.591-4.498 3.887a27.37 27.37 0 0 0-3.888 3.202c-1.295.686-1.982 1.373-1.982 1.373l-.61.61-1.982 1.296c-.61 0-1.22-.687-1.906-.687 0 0-.686-1.22-1.296-1.906 0-.686-.61-1.296-.61-1.905V2648.254s1.22-1.906 1.22-2.592c.686-1.22 1.373-1.906 1.982-3.202.61-.61 1.296-1.983 1.296-3.202.687-.687 1.296-1.982 1.296-3.278.61-.686.61-1.906.61-2.592Z" fill-rule="evenodd" data-name="Path 270"/><path d="M2309.096 2639.867h.687c0-.609 0-.609.609 0v1.297c-.61 0-.61.686-1.296 1.296-1.296 1.296-1.906 1.982-2.592 3.202-1.296 1.371-2.591 2.592-3.887 3.963-1.296 1.22-2.592 1.906-3.889 3.202-1.296 1.296-2.591 1.983-3.277 2.593-1.22.609-2.592 1.296-3.812 1.296l-1.982-1.296c-.61 0-1.295-.61-1.295-.61-.687-1.373-1.296-2.592-1.296-3.965 0-1.906.609-3.201 1.296-4.497.685-1.296 1.295-2.592 1.906-3.888.685-1.296 1.981-2.593 3.277-3.889.686-1.295 1.906-1.906 3.278-2.591.61-1.296 1.905-1.906 1.905-1.906 1.906-.686 2.593-1.371 2.593-1.371l1.296.685s.609 0 1.296.686c0 .61.685.61.685.61 0 1.981.61 2.592.61 3.887l-1.295 1.906c0 1.373-.687 1.983-1.906 3.28 0 0-1.373 1.295-2.592 2.59 0 0-1.983 1.297-2.592 1.907-.686.685-1.982 1.371-2.592 1.371-.686.61-1.372.61-1.372.61l-.61 1.983c-.61.609-.61.609 0 1.219h.61c1.372 0 1.982 0 3.278-1.22 1.906-.686 3.278-1.982 4.497-3.278 1.373-1.295 3.279-2.591 4.574-3.887 1.296-1.983 2.592-3.202 3.888-5.185Zm-7.775-1.296c-.687 0-.687.687-.687.687l-1.219 1.22-1.372 1.372c-.61.61-1.22 1.22-1.22 1.906-1.372 1.296-2.592 3.277-3.278 5.183 1.296-1.295 2.592-1.906 3.887-3.277 1.296-1.22 1.983-2.593 2.593-3.202.61-1.296 1.296-1.983 1.296-1.983.686-1.219 0-1.906 0-1.906Z" fill-rule="evenodd" data-name="Path 271"/><path d="M2316.872 2656.716s-1.295-.687-1.906-1.906c-.685-1.373-1.372-2.592-1.372-4.575l.687-1.296c0-.685.685-1.295.685-1.906.61-1.37.61-1.981 1.22-2.591 0 0 .686-1.373 1.372-1.982.61-1.982 1.906-3.202 3.202-5.184 0 0-.61 0-1.296 1.295-1.296.687-1.906 1.296-3.279 2.593-1.219 1.296-1.904 2.592-3.201 3.888-1.296 1.296-2.592 3.202-3.888 4.573-.685 1.22-1.296 2.593-1.906 3.202-1.371 1.296-1.371 1.983-1.371 1.983 0 1.219 0 1.219-.61 1.906l-.61-.687-1.373-1.906c-.61-1.296-.61-1.905-.61-1.905v-2.593c1.297-1.981 1.983-2.592 2.593-3.963 0 0 1.296-1.906 1.981-3.202.61-1.296 1.906-2.593 2.593-3.202.61-1.372 1.22-2.593 1.22-2.593.685-1.981.685-2.591.685-3.962l.687-.61c.609 0 .609.61.609.61 1.297.685 1.297 1.37 1.982 1.981 0 1.296.61 1.981.61 3.202 0 .685 0 1.372-.61 1.372v1.22l-1.372 1.372 4.574-4.574c.61-.61 1.296-1.296 1.982-1.296.61-.686 1.22-1.296 1.22-1.906l1.981-.686.61-.685s.686.685 1.373.685c0 0 .61.686.61 1.296 0 0 0 .61.61 1.296v1.906s0 .685-.61 1.981c0 0-1.297 1.983-1.982 3.202-1.22 1.373-1.906 2.593-2.592 3.964-.61 1.22-1.906 1.906-2.592 3.202-.61 1.296-.61 1.983-1.22 2.592v1.296s1.906-.686 3.202-1.296c.61-1.296 1.981-1.982 3.202-3.888 1.372-1.295 2.591-2.591 3.964-4.497 1.219-1.373 2.592-3.278 3.812-4.575v-.609h1.371v.61s0 .61-.685.61c0 .686 0 1.372-.686 1.982-.61.61-1.906 1.982-2.593 3.202-.609.686-1.905 1.982-3.202 3.277-.609 1.296-1.981 2.592-3.202 3.888-.685.61-1.981 1.983-2.591 2.593-1.372.609-1.982 1.296-3.278 1.296Z" fill-rule="evenodd" data-name="Path 272"/><path d="M2357.656 2629.5c.687.61.687.61 0 .61v.687h-.61s-.61-.687-.61-1.296c0 0-1.372-.61-1.982-1.296-.61-.687-1.296-.687-2.592-1.297h-5.793c-1.373 1.983-2.592 3.202-3.278 5.795a396.42 396.42 0 0 1-3.889 5.869c-1.295 1.905-2.591 3.888-3.201 5.87-1.372 1.906-1.982 3.202-2.592 4.497-.686 1.906-1.371 3.279-1.371 3.888l.685 1.296s.686-.686 1.906-1.296c1.372-1.296 1.982-1.982 3.278-3.202 1.295-1.371 3.278-3.277 4.497-4.573 1.373-1.983 2.592-3.202 3.279-5.185 0 0 .686 0 .686-.609h.61c0 .61.61.61.61.61s-.61.61-.61 1.296c0 0-.61.686-1.296 1.296-.687 1.296-1.296 1.982-2.592 3.202-.687 1.371-1.906 2.592-2.593 3.963-1.296 1.22-2.591 1.906-3.277 3.202-1.22 1.296-2.592 1.983-3.202 2.593-1.296.609-1.981 1.296-2.591 1.296-1.296 0-1.983-.687-2.592-.687 0 0-.61-.61-1.296-1.22l-.687-1.982v-1.982l.687-1.906c.686-1.295.686-1.906 1.296-3.277.609-1.22 1.296-2.593 1.981-4.498 1.22-1.297 1.906-2.592 2.592-4.499 1.22-1.37 1.906-3.277 3.202-4.573.61-1.982 1.296-3.201 2.591-5.184-1.295.61-1.98.61-2.591.61h-2.592c-1.296 0-2.591-.61-3.887-.61l-1.906-.61-1.373-1.372c-.61-.61-.61-1.219-.61-1.219-.609-1.372-.609-1.982-.609-1.982s.609 0 1.22.61c0 0 1.372.685 2.59 1.372 1.373.61 2.594.61 4.575.61h5.794c1.982-2.592 3.278-4.574 3.964-6.48l1.219-2.592c0-1.295 0-1.295.687-1.295 0 0 .686 0 1.296.609 0 0 1.296.686 1.981 1.982 0 .61.61 1.296.61 2.592 0 .61-.61 1.296-.61 1.981 0 0-.685 1.906-1.371 2.593h1.371c1.22 0 2.593 0 3.812.61 1.373 0 1.982.61 1.982.61 1.297 1.372 1.983 1.98 2.593 2.591l.609 1.983Z" fill-rule="evenodd" data-name="Path 273"/><path d="M2354.454 2656.716c-.61 0-1.296-.687-1.982-1.296-.61-.61-.61-1.297-1.219-1.983v-2.592s0-1.906.61-2.591c-1.297 1.981-1.982 3.277-3.203 4.573 0 0-.685.61-1.37 1.296 0 0-.611.687-1.221 1.297l-1.373.609-1.22.687c-.685 0-1.372-.687-1.372-.687-.608 0-1.219-.61-1.219-.61-.686-.61-.686-1.296-1.372-1.982v-1.906c0-.686 0-1.296.686-2.592.686-.685 1.297-1.906 1.905-2.591.687-1.296 1.373-2.592 1.983-3.888.609-.61 1.296-1.983 1.982-3.202.61-1.372 1.22-2.593 1.22-2.593.686-1.981 1.371-2.591 1.371-2.591 0-1.371 0-1.371.61-1.371 0 0 .61.685 1.296.685l1.296 1.906c.61.686.61 1.371.61 1.982 0 0-.61 1.982-1.219 2.591 0 1.297-.687 2.593-1.983 3.89-.61 1.295-1.295 2.59-1.98 3.887-1.221 1.295-1.907 1.981-2.594 3.201-.609 1.373-.609 1.982-.609 1.982-.61 1.296-.61 1.983-.61 1.983s1.219-.687 2.592-1.373c.61-1.22 1.22-1.906 2.591-3.202 1.22-1.296 2.593-2.591 3.812-4.573 1.373-1.22 2.592-3.202 3.964-4.498.61-1.906 1.906-3.278 2.592-4.499.61-1.37 1.22-2.591 1.22-2.591 0-1.371 0-1.371.686-1.371 0 .685.686.685 1.296 1.37 0 0 .61.611 1.296 1.221.685.686.685 1.982.685 1.982 0 1.295-.685 1.982-1.37 3.201-.611 1.373-1.221 2.592-1.907 3.28-.686 1.295-1.296 2.59-1.906 3.887-1.373 1.295-1.981 2.591-2.592 3.201-.685 1.373-.685 1.982-.685 1.982-.687 1.296-.687 1.983 0 1.983 0 0 .685-.687 1.296-.687.608-.686 1.295-1.296 1.981-1.905.61-.687 1.22-1.373 2.592-2.593.61-.686 1.906-1.981 2.591-3.277.61-.686 1.906-1.906 2.593-3.279.61-1.219 1.906-1.905 2.592-3.202l.61-.609h.61v.61s0 .61-.61 1.296c0 0 0 .686-.61 1.296-.686 1.296-1.983 1.982-2.592 3.202-.687 1.371-1.983 2.592-3.278 3.277-.686 1.296-1.906 2.592-3.278 3.888-.61 1.296-1.906 1.983-3.201 2.593-.61.609-1.983 1.296-2.593 1.296Z" fill-rule="evenodd" data-name="Path 274"/><path d="m2389.445 2639.867.685-.609h.61V2641.164s-.61.686-1.295 1.296c-.686 1.296-1.296 1.982-2.592 3.202-.687 1.371-1.906 2.592-2.592 3.963-1.295 1.22-2.592 1.906-3.888 3.202-.61 1.296-1.982 1.983-2.592 2.593-1.296.609-1.981 1.296-2.591 1.296-1.296 0-1.982-.687-2.592-.687 0 0-.61-.61-1.296-1.22l-.687-1.982v-1.982s0-1.22.687-2.591c0 0 .686-1.906 1.296-2.592.61-1.22 1.296-2.593 1.981-3.202.61-1.296 1.22-2.593 1.906-3.202 0 0-1.295 0-2.591.61-1.296 0-2.592.61-3.888.61l-.61-.61s-1.373 0-1.373-.61c0 0-.61-1.372-1.219-1.982v-3.202c0-1.371 0-3.277.61-4.573.61-1.983 1.296-3.202 2.592-4.575.61-.61 1.982-1.906 1.982-1.906 1.906-1.295 2.591-1.295 2.591-1.295 1.906 0 2.592 0 3.202.61.61.685.61 1.372.61 2.591v1.373l-.61 1.906c-.61.686-.61 1.296-1.296 1.905 0 0-.685 1.982-1.295 2.593-.61 1.37-1.982 3.277-3.202 4.573l2.591-1.296c1.906-.686 2.592-1.296 2.592-1.296 1.22-.61 1.906-.61 1.906-.61.687-.686.687-.686 1.296-1.371 0 0 .61 0 1.296.685l.686.686 1.22 1.22c.686.686.686 1.371.686 1.982l-.686 1.982-1.906 1.906a70.78 70.78 0 0 0-1.296 2.592c-1.296 1.906-1.982 3.277-2.592 3.888-1.296 1.295-1.296 2.591-1.296 2.591-1.295 1.296-1.295 2.592-1.295 2.592l1.295 1.296s.686-.686 1.906-1.296c1.373-.609 1.982-1.982 3.278-3.202 1.297-1.371 2.592-3.277 3.888-4.573 1.296-1.983 2.592-3.202 3.888-5.185Zm-19.439-5.793v.61l.61 1.296s0 .685.686.685c.686-1.37 1.296-2.591 1.906-3.277l1.371-2.591c.61-1.296.61-2.592 1.22-2.592l-.61-1.297-1.295 1.297-1.906 1.296c-.686 1.296-.686 1.981-1.373 2.591l-.609 1.982Z" fill-rule="evenodd" data-name="Path 275"/><path d="M2406.292 2639.867h.61c0-.609.686-.609.686 0v1.297c-.686 0-.686.686-1.296 1.296-.61 1.296-1.982 1.982-2.592 3.202-1.296 1.371-2.592 2.592-3.887 3.963-.687 1.22-1.906 1.906-3.279 3.202-1.22 1.296-2.592 1.983-3.81 2.593-1.373.609-2.594 1.296-3.965 1.296-.61 0-1.22-.687-1.906-1.296l-1.296-1.297c-.61-.686-1.295-1.905-1.295-3.278 0-1.906.685-3.201 1.295-4.497.61-1.296 1.296-2.592 1.982-3.888 1.22-1.296 1.906-2.593 3.202-3.889.61-1.295 1.982-1.906 3.201-2.591.686-1.296 1.982-1.906 2.592-1.906 1.373-.686 1.983-1.371 1.983-1.371l1.296.685s.685 0 1.295.686c0 .61.61.61.61.61 0 1.981.686 2.592.686 3.887l-.685 1.906c-.61 1.373-1.22 1.983-1.906 3.28-1.296.685-1.906 1.295-2.592 2.59-1.297.686-1.906 1.297-3.279 1.907-.61.685-1.906 1.371-1.906 1.371-1.295.61-1.906.61-1.906.61-.685.61-.685 1.296-.685 1.296v1.296l1.296.61c.61 0 1.295 0 3.201-1.22 1.373-.686 2.592-1.982 3.965-3.278 1.906-1.295 3.201-2.591 4.497-3.887 1.296-1.983 2.592-3.202 3.888-5.185Zm-7.775-1.296-.61.687c-.686 0-.686.61-.686.61l-1.297 1.296c-1.296 1.296-1.296 1.905-1.982 2.592-1.219 1.296-1.906 3.277-3.201 5.183 1.295-1.295 2.591-1.906 3.887-3.277 1.296-1.22 1.906-2.593 1.906-2.593 1.983-1.905 1.983-2.592 1.983-2.592.609-1.219 0-1.906 0-1.906Z" fill-rule="evenodd" data-name="Path 276"/></g></svg>