<svg width="939" height="464" viewBox="0 0 939 464" fill="none" xmlns="http://www.w3.org/2000/svg">
<g style="mix-blend-mode:overlay">
<path fill-rule="evenodd" clip-rule="evenodd" d="M494.462 25.7805C493.855 33.3022 490.561 40.2979 485.306 45.2288C480.051 50.1595 473.264 52.6214 466.438 52.0729C459.613 51.5243 453.308 48.0102 448.911 42.3037C444.514 36.5971 442.385 29.1655 442.992 21.6438C442.992 21.6438 457.197 29.0297 468.727 23.7121C480.257 18.3946 494.462 25.7805 494.462 25.7805ZM501.515 45.7558C499.891 48.658 498.001 51.2598 495.932 53.4165C494.663 54.4547 493.588 55.4374 492.591 56.3489C487.364 61.1268 484.28 63.9467 466.561 62.5227C448.074 61.0369 445.925 58.3462 440.692 51.7947C439.953 50.8691 439.152 49.8665 438.235 48.7794C430.826 39.9969 431.074 31.7739 431.906 21.4576L439.259 22.0486C438.073 36.7432 443.825 44.3106 443.825 44.3106C443.825 44.3106 448.737 54.1349 467.119 55.6122C485.501 57.0896 490.812 48.0869 490.812 48.0869C490.812 48.0869 497.969 38.0771 498.946 25.9756L506.653 26.5951C507.628 26.3778 508.636 26.2765 509.652 26.2978C512.215 26.3515 514.698 27.1814 516.735 28.6642C518.771 30.1471 520.251 32.204 520.955 34.5294C521.659 36.8548 521.55 39.3248 520.643 41.5727C519.737 43.8206 518.081 45.7266 515.923 47.0076C513.765 48.2886 511.218 48.8765 508.662 48.6839C506.106 48.4914 503.675 47.5284 501.733 45.9383C501.659 45.8782 501.587 45.8174 501.515 45.7558ZM506.394 32.8963C507.341 32.3363 508.446 32.0486 509.574 32.0722C510.817 32.0982 512.021 32.5006 513.008 33.2196C513.995 33.9386 514.713 34.9359 515.054 36.0634C515.396 37.191 515.343 38.3886 514.903 39.4785C514.464 40.5685 513.661 41.4926 512.615 42.1137C511.568 42.735 510.333 43.0199 509.094 42.9266C507.854 42.8332 506.676 42.3663 505.734 41.5953C505.128 41.0993 504.64 40.4946 504.297 39.8218C505.158 37.596 505.866 35.2717 506.394 32.8963ZM432.545 65.0088L499.659 70.4028C500.923 70.5043 501.853 71.7477 501.738 73.1798C501.622 74.612 500.504 75.6907 499.24 75.5891L432.126 70.1951C430.863 70.0935 429.932 68.8502 430.048 67.418C430.163 65.9859 431.281 64.9072 432.545 65.0088ZM871.961 16.5857C869.935 21.25 866.311 24.9911 861.887 26.9862C857.463 28.9811 852.601 29.0665 848.372 27.2236C844.143 25.3806 840.891 21.7602 839.334 17.1589C837.777 12.5576 838.04 7.35222 840.067 2.68792C840.067 2.68792 847.508 10.5059 856.014 9.63683C864.521 8.7678 871.961 16.5857 871.961 16.5857ZM872.1 30.8682C870.432 32.3638 868.661 33.6098 866.872 34.5326C865.837 34.917 864.938 35.3085 864.104 35.6717L864.104 35.6718C859.732 37.5756 857.151 38.6993 846.172 33.915C834.716 28.9232 833.933 26.737 832.027 21.4139L832.027 21.4139L832.027 21.4137C831.758 20.6618 831.466 19.8472 831.119 18.9533C828.313 11.7313 830.264 6.54126 833.044 0.144043L837.6 2.12945C833.641 11.2417 835.655 17.3261 835.655 17.3261C835.655 17.3261 836.643 24.6662 848.034 29.6297C859.425 34.5932 864.772 30.0134 864.772 30.0134C864.772 30.0134 871.515 25.1954 874.776 17.6911L879.552 19.7722C880.221 19.847 880.885 20.0028 881.528 20.2388C883.149 20.8336 884.551 21.9062 885.525 23.2973C886.499 24.6885 886.994 26.324 886.935 27.9611C886.877 29.5982 886.269 31.1496 885.201 32.3849C884.133 33.6203 882.663 34.4737 881.008 34.8185C879.353 35.1633 877.603 34.9812 876.016 34.2992C874.429 33.6171 873.09 32.4713 872.199 31.0322C872.165 30.9779 872.132 30.9232 872.1 30.8682ZM878.013 23.7343C878.739 23.5843 879.505 23.6425 880.219 23.9044C881.005 24.1928 881.685 24.7128 882.157 25.3874C882.629 26.0619 882.869 26.8549 882.841 27.6487C882.813 28.4425 882.518 29.1947 882 29.7937C881.482 30.3926 880.769 30.8064 879.967 30.9736C879.165 31.1409 878.316 31.0525 877.546 30.7218C876.777 30.3911 876.128 29.8356 875.696 29.1378C875.418 28.6889 875.239 28.1965 875.167 27.6924C876.201 26.4611 877.159 25.1337 878.013 23.7343ZM823.955 28.059L865.543 46.1811C866.326 46.5223 866.648 47.5188 866.262 48.4069C865.876 49.295 864.929 49.7384 864.146 49.3972L822.557 31.2751C821.774 30.9339 821.452 29.9373 821.838 29.0492C822.224 28.1611 823.172 27.7178 823.955 28.059ZM670.953 192.822C671.91 196.385 671.543 200.145 669.934 203.275C668.324 206.406 665.603 208.65 662.371 209.515C659.138 210.379 655.657 209.793 652.695 207.885C649.733 205.977 647.531 202.904 646.575 199.341C646.575 199.341 654.329 200.417 658.764 196.082C663.199 191.746 670.953 192.822 670.953 192.822ZM677.483 200.865C677.212 202.467 676.77 203.975 676.172 205.306C675.758 205.992 675.424 206.62 675.115 207.203C673.494 210.259 672.537 212.062 664.144 214.306C655.388 216.648 653.956 215.76 650.47 213.6C649.978 213.295 649.444 212.965 648.843 212.614C643.989 209.783 642.752 205.956 641.44 201.07L644.922 200.138C646.791 207.099 650.683 209.642 650.683 209.642C650.683 209.642 654.559 213.361 663.266 211.033C671.972 208.705 672.938 203.69 672.938 203.69C672.938 203.69 674.589 197.91 673.05 192.178L676.701 191.202C677.114 190.942 677.561 190.731 678.033 190.574C679.222 190.179 680.501 190.155 681.683 190.505C682.864 190.854 683.883 191.559 684.59 192.514C685.296 193.47 685.652 194.625 685.604 195.808C685.556 196.992 685.107 198.14 684.323 199.083C683.54 200.027 682.464 200.714 681.255 201.044C680.047 201.373 678.77 201.328 677.614 200.914C677.57 200.898 677.527 200.882 677.483 200.865ZM677.617 194.146C677.961 193.733 678.422 193.419 678.946 193.246C679.522 193.054 680.143 193.042 680.715 193.212C681.288 193.381 681.782 193.723 682.125 194.186C682.467 194.65 682.64 195.21 682.617 195.784C682.593 196.357 682.376 196.914 681.996 197.372C681.616 197.829 681.094 198.162 680.508 198.322C679.922 198.482 679.303 198.46 678.742 198.259C678.382 198.13 678.058 197.931 677.79 197.677C677.82 196.512 677.764 195.326 677.617 194.146ZM648.89 221.018L680.679 212.517C681.277 212.357 681.91 212.778 682.092 213.456C682.275 214.134 681.937 214.814 681.339 214.974L649.55 223.475C648.951 223.635 648.319 223.214 648.136 222.536C647.954 221.858 648.292 221.178 648.89 221.018ZM258.513 219.776C260.254 226.26 259.586 233.103 256.657 238.8C253.728 244.498 248.777 248.582 242.893 250.155C237.01 251.729 230.676 250.662 225.284 247.19C219.893 243.717 215.886 238.124 214.146 231.64C214.146 231.64 228.258 233.598 236.329 225.708C244.401 217.818 258.513 219.776 258.513 219.776ZM270.397 234.414C269.904 237.33 269.099 240.073 268.01 242.496C267.257 243.744 266.65 244.888 266.087 245.949L266.087 245.949C263.136 251.509 261.395 254.791 246.121 258.876C230.185 263.137 227.58 261.522 221.235 257.591L221.235 257.591C220.339 257.036 219.368 256.434 218.274 255.796C209.439 250.644 207.188 243.679 204.8 234.786L211.138 233.091C214.539 245.758 221.622 250.386 221.622 250.386C221.622 250.386 228.676 257.156 244.522 252.919C260.367 248.681 262.125 239.555 262.125 239.555C262.125 239.555 265.13 229.036 262.329 218.604L268.973 216.827C269.725 216.355 270.539 215.97 271.397 215.685C273.561 214.967 275.89 214.922 278.04 215.558C280.189 216.194 282.045 217.477 283.33 219.216C284.616 220.955 285.263 223.057 285.175 225.211C285.088 227.365 284.271 229.455 282.845 231.171C281.42 232.888 279.462 234.139 277.262 234.739C275.062 235.339 272.738 235.256 270.634 234.502C270.555 234.474 270.476 234.444 270.397 234.414ZM270.64 222.185C271.266 221.433 272.106 220.863 273.059 220.547C274.107 220.199 275.237 220.177 276.279 220.486C277.322 220.794 278.221 221.416 278.845 222.259C279.468 223.102 279.782 224.122 279.739 225.166C279.697 226.21 279.301 227.224 278.609 228.056C277.918 228.888 276.969 229.495 275.902 229.786C274.836 230.077 273.709 230.036 272.689 229.671C272.032 229.436 271.443 229.074 270.954 228.613C271.01 226.491 270.908 224.333 270.64 222.185ZM218.36 271.091L276.213 255.62C277.302 255.329 278.454 256.094 278.785 257.328C279.117 258.563 278.503 259.8 277.413 260.091L219.56 275.562C218.471 275.853 217.319 275.088 216.988 273.854C216.656 272.619 217.271 271.382 218.36 271.091ZM88.7372 403.95C87.9648 410.619 84.8204 416.736 79.9958 420.958C75.1711 425.179 69.0613 427.159 63.0106 426.461C56.9599 425.763 51.4637 422.444 47.7313 417.236C43.9989 412.027 42.336 405.355 43.1083 398.687C43.1083 398.687 55.5081 405.69 65.9228 401.319C76.3374 396.947 88.7372 403.95 88.7372 403.95ZM94.3894 421.926C92.8555 424.456 91.0953 426.711 89.189 428.564C88.0284 429.448 87.0423 430.289 86.1278 431.068L86.1277 431.068C81.3336 435.155 78.5041 437.567 62.7964 435.755C46.4075 433.864 44.5802 431.406 40.1308 425.42C39.5022 424.574 38.8212 423.658 38.0395 422.664C31.7246 414.628 32.1995 407.325 33.2588 398.179L39.7772 398.931C38.2683 411.958 43.1473 418.863 43.1473 418.863C43.1473 418.863 47.21 427.748 63.506 429.628C79.8021 431.508 84.8019 423.668 84.8019 423.668C84.8019 423.668 91.4748 414.99 92.7174 404.262L99.5499 405.05C100.424 404.887 101.323 404.828 102.226 404.879C104.502 405.005 106.684 405.82 108.449 407.201C110.213 408.582 111.465 410.456 112.019 412.545C112.573 414.634 112.399 416.826 111.524 418.797C110.649 420.767 109.118 422.411 107.16 423.483C105.201 424.555 102.919 424.999 100.652 424.749C98.3858 424.499 96.2552 423.568 94.5772 422.095C94.5138 422.039 94.4512 421.983 94.3894 421.926ZM99.125 410.644C99.9841 410.176 100.975 409.954 101.977 410.01C103.081 410.071 104.139 410.466 104.995 411.136C105.85 411.805 106.457 412.714 106.726 413.727C106.995 414.74 106.91 415.803 106.486 416.758C106.061 417.714 105.319 418.51 104.37 419.03C103.42 419.55 102.314 419.766 101.215 419.644C100.116 419.523 99.0825 419.072 98.2689 418.357C97.7455 417.898 97.3308 417.345 97.0466 416.736C97.8803 414.784 98.5819 412.74 99.125 410.644ZM32.4788 436.916L91.9766 443.78C93.0968 443.909 93.8857 445.043 93.7387 446.313C93.5916 447.583 92.5643 448.507 91.4441 448.378L31.9462 441.514C30.826 441.385 30.0371 440.251 30.1842 438.981C30.3312 437.711 31.3586 436.787 32.4788 436.916ZM923.219 243.04C920.885 247.731 916.955 251.391 912.294 253.217C907.634 255.042 902.624 254.882 898.367 252.772C894.111 250.662 890.955 246.775 889.596 241.966C888.237 237.157 888.785 231.82 891.12 227.129C891.12 227.129 898.365 235.544 907.169 235.084C915.973 234.625 923.219 243.04 923.219 243.04ZM922.604 257.727C920.807 259.18 918.917 260.37 917.027 261.227C915.94 261.57 914.994 261.926 914.116 262.257L914.116 262.257C909.513 263.991 906.797 265.015 895.746 259.538C884.217 253.823 883.527 251.536 881.848 245.967L881.848 245.967L881.847 245.967C881.61 245.181 881.353 244.328 881.043 243.392C878.538 235.826 880.822 230.59 884.024 224.156L888.609 226.429C884.049 235.594 885.8 241.95 885.8 241.95C885.8 241.95 886.427 249.546 897.891 255.228C909.355 260.91 915.104 256.475 915.104 256.475C915.104 256.475 922.303 251.866 926.059 244.319L930.865 246.702C931.55 246.813 932.225 247.007 932.875 247.282C934.512 247.976 935.899 249.15 936.828 250.629C937.757 252.109 938.179 253.815 938.032 255.495C937.885 257.175 937.176 258.738 936.011 259.954C934.846 261.169 933.287 261.971 931.565 262.242C929.843 262.512 928.05 262.235 926.453 261.453C924.855 260.671 923.538 259.425 922.697 257.901C922.665 257.843 922.634 257.785 922.604 257.727ZM929.07 250.696C929.825 250.579 930.612 250.678 931.333 250.983C932.127 251.32 932.799 251.889 933.249 252.606C933.7 253.323 933.904 254.151 933.833 254.965C933.762 255.78 933.418 256.538 932.853 257.127C932.288 257.716 931.532 258.105 930.698 258.236C929.863 258.367 928.993 258.233 928.219 257.854C927.444 257.475 926.805 256.871 926.398 256.132C926.135 255.656 925.977 255.141 925.93 254.619C927.059 253.406 928.116 252.091 929.07 250.696ZM873.183 252.386L915.04 273.133C915.828 273.523 916.106 274.564 915.662 275.457C915.217 276.351 914.218 276.758 913.43 276.367L871.573 255.621C870.785 255.23 870.507 254.189 870.951 253.296C871.396 252.403 872.395 251.996 873.183 252.386ZM688.863 412.219C687.48 419.781 683.427 426.537 677.597 431C671.767 435.463 664.637 437.268 657.775 436.018C650.914 434.768 644.882 430.565 641.008 424.334C637.135 418.103 635.735 410.354 637.118 402.792C637.118 402.792 650.762 411.723 662.991 407.506C675.22 403.289 688.863 412.219 688.863 412.219ZM693.972 433.182C692.03 435.959 689.849 438.404 687.531 440.379C686.139 441.302 684.949 442.189 683.845 443.011L683.845 443.011C678.06 447.322 674.646 449.867 656.833 446.622C638.247 443.236 636.344 440.29 631.709 433.118L631.709 433.117C631.054 432.104 630.345 431.007 629.526 429.811C622.914 420.157 624.004 411.847 625.902 401.476L633.294 402.823C630.591 417.596 635.648 425.851 635.648 425.851C635.648 425.851 639.624 436.308 658.104 439.674C676.584 443.041 682.886 434.456 682.886 434.456C682.886 434.456 691.162 425.039 693.388 412.873L701.136 414.285C702.147 414.164 703.178 414.163 704.207 414.288C706.798 414.603 709.231 415.697 711.143 417.407C713.056 419.117 714.346 421.352 714.822 423.781C715.298 426.209 714.935 428.702 713.787 430.888C712.639 433.074 710.766 434.837 708.448 435.916C706.129 436.995 703.488 437.332 700.917 436.877C698.346 436.422 695.981 435.199 694.174 433.389C694.106 433.321 694.039 433.252 693.972 433.182ZM700.231 420.645C701.247 420.174 702.397 419.994 703.538 420.133C704.794 420.286 705.974 420.816 706.901 421.645C707.828 422.474 708.454 423.558 708.685 424.736C708.916 425.913 708.74 427.122 708.183 428.182C707.626 429.242 706.718 430.097 705.594 430.62C704.47 431.143 703.189 431.306 701.943 431.085C700.696 430.865 699.549 430.272 698.673 429.395C698.11 428.83 697.677 428.168 697.398 427.451C698.497 425.282 699.453 422.999 700.231 420.645ZM622.102 445.682L689.574 457.974C690.845 458.206 691.661 459.561 691.398 461C691.134 462.44 689.891 463.42 688.621 463.188L621.148 450.896C619.878 450.665 619.062 449.31 619.325 447.87C619.588 446.43 620.832 445.451 622.102 445.682ZM59.4489 65.8363C58.6766 72.5044 55.5322 78.6221 50.7075 82.8437C45.8829 87.0651 39.773 89.0446 33.7223 88.3466C27.6716 87.6486 22.1754 84.3302 18.443 79.1216C14.7107 73.9128 13.0477 67.2405 13.8201 60.5724C13.8201 60.5724 26.2199 67.5763 36.6345 63.2043C47.0492 58.8324 59.4489 65.8363 59.4489 65.8363ZM65.1011 83.8119C63.5673 86.3419 61.807 88.5966 59.9007 90.4502C58.7401 91.3339 57.754 92.1744 56.8395 92.954L56.8395 92.954C52.0454 97.0406 49.2159 99.4524 33.5082 97.6403C17.1193 95.7496 15.2919 93.2913 10.8425 87.3057C10.2139 86.4601 9.53299 85.5441 8.75128 84.5494C2.43635 76.5133 2.91126 69.2107 3.97057 60.0652L10.489 60.8172C8.98008 73.8442 13.8591 80.7489 13.8591 80.7489C13.8591 80.7489 17.9218 89.6341 34.2178 91.5141C50.5138 93.3941 55.5137 85.5543 55.5137 85.5543C55.5137 85.5543 62.1865 76.8762 63.4291 66.148L70.2617 66.9362C71.1354 66.7732 72.0343 66.7142 72.9374 66.7644C75.2138 66.8911 77.3961 67.7054 79.1603 69.0865C80.9247 70.4675 82.1767 72.3417 82.7307 74.4307C83.2847 76.5197 83.1112 78.7121 82.2358 80.6826C81.3603 82.653 79.8297 84.2965 77.8713 85.3688C75.9128 86.4411 73.6308 86.8852 71.3642 86.6352C69.0976 86.3852 66.967 85.4542 65.2889 83.9808C65.2256 83.9251 65.163 83.8688 65.1011 83.8119ZM69.8367 72.5301C70.6959 72.0614 71.6871 71.8397 72.6892 71.8955C73.793 71.9569 74.851 72.3517 75.7065 73.0214C76.5619 73.691 77.1691 74.5997 77.4377 75.6126C77.7063 76.6255 77.6221 77.6885 77.1977 78.644C76.7731 79.5994 76.031 80.3962 75.0815 80.9161C74.1319 81.4362 73.0254 81.6514 71.9264 81.5302C70.8273 81.409 69.7943 80.9577 68.9807 80.2432C68.4572 79.7836 68.0425 79.2309 67.7584 78.6222C68.5921 76.67 69.2936 74.6256 69.8367 72.5301ZM3.19054 98.802L62.6884 105.666C63.8086 105.795 64.5975 106.929 64.4504 108.199C64.3033 109.468 63.276 110.393 62.1558 110.264L2.65799 103.4C1.53777 103.271 0.74887 102.136 0.895931 100.867C1.04299 99.5972 2.07032 98.6727 3.19054 98.802Z" fill="#2F2105"/>
</g>
</svg>
