<svg width="60" height="48" viewBox="0 0 60 48" fill="none" xmlns="http://www.w3.org/2000/svg">
<path d="M46 1.5C46 7.46737 44 13.5 41 17.4099C37 21.5 37 24 25.5222 24C14.0444 24 14 22.1151 9.61232 17.4099C5.22463 12.7047 5 7.96737 5 2H9C9 10.5 12.4388 14.5834 12.4388 14.5834C12.4388 14.5834 15.5222 20.0027 25.5222 20.0027C35.5222 20.0027 38 14.5834 38 14.5834C38 14.5834 41.4321 8.5 41.4321 1.5H46Z" fill="#2F2105"/>
<path d="M41.4596 9.5273C41.8656 10.8568 42.6895 12.02 43.8091 12.8441C44.9286 13.6682 46.2841 14.1094 47.6742 14.102C49.0643 14.0946 50.415 13.6391 51.5258 12.8032C52.6365 11.9673 53.4481 10.7954 53.84 9.46164C54.2319 8.12786 54.1832 6.70326 53.7012 5.39934C53.2192 4.09542 52.3296 2.98169 51.1643 2.2235C49.9991 1.46532 48.6205 1.1031 47.2331 1.19061C45.8457 1.27813 44.5235 1.81072 43.4628 2.70932L45.6146 5.24923C46.1289 4.81352 46.77 4.55529 47.4427 4.51285C48.1154 4.47042 48.7838 4.64605 49.3488 5.01367C49.9138 5.38129 50.3452 5.9213 50.5789 6.55354C50.8126 7.18577 50.8362 7.87651 50.6462 8.52322C50.4561 9.16993 50.0626 9.73813 49.5241 10.1434C48.9855 10.5488 48.3306 10.7696 47.6566 10.7732C46.9825 10.7768 46.3253 10.5629 45.7825 10.1633C45.2396 9.7637 44.8401 9.19972 44.6433 8.55506L41.4596 9.5273Z" fill="#2F2105"/>
<path d="M39 1.59495C39 5.94584 37.525 10.1185 34.8995 13.1951C32.274 16.2716 28.713 18 25 18C21.287 18 17.726 16.2716 15.1005 13.1951C12.475 10.1185 11 5.94584 11 1.59495C11 1.59495 19 5.18358 25 1.59495C31 -1.99369 39 1.59495 39 1.59495Z" fill="#F4AE26"/>
<rect x="6" y="27" width="47" height="3" rx="1.5" fill="#2F2105"/>
<path d="M5.436 44.06C4.484 44.06 3.656 43.888 2.952 43.544C2.248 43.192 1.708 42.696 1.332 42.056C0.956 41.416 0.768 40.672 0.768 39.824C0.768 38.648 0.988 37.604 1.428 36.692C1.876 35.78 2.48 35.076 3.24 34.58C4 34.076 4.844 33.824 5.772 33.824C6.636 33.824 7.292 34.048 7.74 34.496C8.188 34.936 8.412 35.52 8.412 36.248C8.412 36.736 8.324 37.128 8.148 37.424C7.98 37.72 7.736 37.868 7.416 37.868C7.192 37.868 7.016 37.816 6.888 37.712C6.76 37.608 6.696 37.456 6.696 37.256C6.696 37.184 6.712 37.052 6.744 36.86C6.792 36.62 6.816 36.428 6.816 36.284C6.816 35.556 6.428 35.192 5.652 35.192C5.124 35.192 4.62 35.364 4.14 35.708C3.66 36.052 3.272 36.56 2.976 37.232C2.68 37.896 2.532 38.688 2.532 39.608C2.532 40.568 2.8 41.312 3.336 41.84C3.872 42.36 4.664 42.62 5.712 42.62C6.232 42.62 6.756 42.556 7.284 42.428C7.82 42.292 8.412 42.088 9.06 41.816C9.18 41.768 9.28 41.744 9.36 41.744C9.488 41.744 9.584 41.792 9.648 41.888C9.712 41.984 9.744 42.108 9.744 42.26C9.744 42.748 9.48 43.108 8.952 43.34C8.384 43.588 7.792 43.772 7.176 43.892C6.568 44.004 5.988 44.06 5.436 44.06ZM10.2786 44.06C9.78256 44.06 9.38656 43.88 9.09056 43.52C8.79456 43.16 8.64656 42.688 8.64656 42.104C8.64656 41.464 8.79456 40.86 9.09056 40.292C9.38656 39.716 9.77856 39.256 10.2666 38.912C10.7626 38.56 11.2866 38.384 11.8386 38.384C12.0146 38.384 12.1306 38.42 12.1866 38.492C12.2506 38.556 12.3026 38.676 12.3426 38.852C12.5106 38.82 12.6866 38.804 12.8706 38.804C13.2626 38.804 13.4586 38.944 13.4586 39.224C13.4586 39.392 13.3986 39.792 13.2786 40.424C13.0946 41.344 13.0026 41.984 13.0026 42.344C13.0026 42.464 13.0306 42.56 13.0866 42.632C13.1506 42.704 13.2306 42.74 13.3266 42.74C13.4786 42.74 13.6626 42.644 13.8786 42.452C14.0946 42.252 14.3866 41.932 14.7546 41.492C14.8506 41.38 14.9586 41.324 15.0786 41.324C15.1826 41.324 15.2626 41.372 15.3186 41.468C15.3826 41.564 15.4146 41.696 15.4146 41.864C15.4146 42.184 15.3386 42.432 15.1866 42.608C14.8586 43.016 14.5106 43.36 14.1426 43.64C13.7746 43.92 13.4186 44.06 13.0746 44.06C12.8106 44.06 12.5666 43.972 12.3426 43.796C12.1266 43.612 11.9626 43.364 11.8506 43.052C11.4346 43.724 10.9106 44.06 10.2786 44.06ZM10.7106 42.848C10.8866 42.848 11.0546 42.744 11.2146 42.536C11.3746 42.328 11.4906 42.052 11.5626 41.708L12.0066 39.5C11.6706 39.508 11.3586 39.636 11.0706 39.884C10.7906 40.124 10.5666 40.444 10.3986 40.844C10.2306 41.244 10.1466 41.668 10.1466 42.116C10.1466 42.364 10.1946 42.548 10.2906 42.668C10.3946 42.788 10.5346 42.848 10.7106 42.848ZM19.1101 40.64C19.3341 40.64 19.4461 40.808 19.4461 41.144C19.4461 41.776 18.9501 42.092 17.9581 42.092C17.7661 42.092 17.4901 42.056 17.1301 41.984C17.2341 42.48 17.3181 43.032 17.3821 43.64C17.4541 44.24 17.4901 44.736 17.4901 45.128C17.4901 45.992 17.3501 46.652 17.0701 47.108C16.7901 47.564 16.4221 47.792 15.9661 47.792C15.3901 47.792 14.9781 47.384 14.7301 46.568C14.4901 45.752 14.3701 44.52 14.3701 42.872C14.3701 41.336 14.5341 39.78 14.8621 38.204C15.1981 36.62 15.6541 35.312 16.2301 34.28C16.8141 33.24 17.4541 32.72 18.1501 32.72C18.5261 32.72 18.8181 32.888 19.0261 33.224C19.2421 33.56 19.3501 34.012 19.3501 34.58C19.3501 36.46 18.2261 38.508 15.9781 40.724C15.8981 41.508 15.8581 42.196 15.8581 42.788C15.8581 43.612 15.8861 44.456 15.9421 45.32C15.9981 46.192 16.0901 46.628 16.2181 46.628C16.4581 46.628 16.5781 46.212 16.5781 45.38C16.5781 44.756 16.5341 44.152 16.4461 43.568C16.3661 42.984 16.2541 42.368 16.1101 41.72C16.1021 41.616 16.1341 41.484 16.2061 41.324C16.2861 41.164 16.3821 41.024 16.4941 40.904C16.6061 40.784 16.7061 40.724 16.7941 40.724C16.9541 40.724 17.1461 40.732 17.3701 40.748C17.4421 40.756 17.5261 40.76 17.6221 40.76C17.9421 40.76 18.2981 40.732 18.6901 40.676C18.7541 40.668 18.8221 40.66 18.8941 40.652C18.9661 40.644 19.0381 40.64 19.1101 40.64ZM17.8981 33.908C17.7541 33.908 17.5741 34.152 17.3581 34.64C17.1501 35.128 16.9421 35.776 16.7341 36.584C16.5261 37.384 16.3461 38.232 16.1941 39.128C16.8341 38.4 17.3261 37.644 17.6701 36.86C18.0141 36.068 18.1901 35.328 18.1981 34.64C18.1981 34.152 18.0981 33.908 17.8981 33.908ZM22.8368 41.684C22.9408 41.684 23.0208 41.732 23.0768 41.828C23.1408 41.924 23.1728 42.056 23.1728 42.224C23.1728 42.512 23.1048 42.76 22.9688 42.968C22.7448 43.312 22.4488 43.58 22.0808 43.772C21.7208 43.964 21.2888 44.06 20.7848 44.06C20.0168 44.06 19.4208 43.832 18.9968 43.376C18.5728 42.912 18.3608 42.288 18.3608 41.504C18.3608 40.952 18.4768 40.44 18.7088 39.968C18.9408 39.488 19.2608 39.108 19.6688 38.828C20.0848 38.548 20.5528 38.408 21.0728 38.408C21.5368 38.408 21.9088 38.548 22.1888 38.828C22.4688 39.1 22.6088 39.472 22.6088 39.944C22.6088 40.496 22.4088 40.972 22.0088 41.372C21.6168 41.764 20.9448 42.076 19.9928 42.308C20.1848 42.676 20.5088 42.86 20.9648 42.86C21.2928 42.86 21.5608 42.784 21.7688 42.632C21.9848 42.48 22.2328 42.224 22.5128 41.864C22.6088 41.744 22.7168 41.684 22.8368 41.684ZM20.8688 39.584C20.5728 39.584 20.3208 39.756 20.1128 40.1C19.9128 40.444 19.8128 40.86 19.8128 41.348V41.372C20.2848 41.26 20.6568 41.092 20.9288 40.868C21.2008 40.644 21.3368 40.384 21.3368 40.088C21.3368 39.936 21.2928 39.816 21.2048 39.728C21.1248 39.632 21.0128 39.584 20.8688 39.584Z" fill="#F4AE26"/>
<path d="M29.9982 44.096C28.9342 44.096 28.0822 43.896 27.4422 43.496C26.8022 43.088 26.4822 42.468 26.4822 41.636C26.4822 41.196 26.5582 40.86 26.7102 40.628C26.8622 40.396 27.0862 40.28 27.3822 40.28C27.5982 40.28 27.7742 40.336 27.9102 40.448C28.0462 40.56 28.1142 40.704 28.1142 40.88C28.1142 41.04 28.1022 41.18 28.0782 41.3C28.0782 41.332 28.0702 41.388 28.0542 41.468C28.0462 41.548 28.0422 41.632 28.0422 41.72C28.0422 42.08 28.2222 42.348 28.5822 42.524C28.9502 42.7 29.4622 42.788 30.1182 42.788C30.7982 42.788 31.3302 42.668 31.7142 42.428C32.0982 42.18 32.2902 41.836 32.2902 41.396C32.2902 41.124 32.2022 40.892 32.0262 40.7C31.8502 40.5 31.6302 40.336 31.3662 40.208C31.1022 40.072 30.7302 39.908 30.2502 39.716C29.6342 39.476 29.1302 39.248 28.7382 39.032C28.3542 38.816 28.0222 38.524 27.7422 38.156C27.4702 37.78 27.3342 37.316 27.3342 36.764C27.3342 36.188 27.4862 35.676 27.7902 35.228C28.1022 34.78 28.5462 34.432 29.1222 34.184C29.7062 33.936 30.3902 33.812 31.1742 33.812C31.7582 33.812 32.2942 33.9 32.7822 34.076C33.2702 34.244 33.6582 34.504 33.9462 34.856C34.2422 35.208 34.3902 35.64 34.3902 36.152C34.3902 36.656 34.3142 37.036 34.1622 37.292C34.0102 37.548 33.7862 37.676 33.4902 37.676C33.2822 37.676 33.1062 37.612 32.9622 37.484C32.8262 37.356 32.7582 37.204 32.7582 37.028C32.7582 36.876 32.7702 36.736 32.7942 36.608C32.8182 36.368 32.8302 36.216 32.8302 36.152C32.8302 35.816 32.6662 35.56 32.3382 35.384C32.0102 35.208 31.6022 35.12 31.1142 35.12C30.4262 35.12 29.8982 35.248 29.5302 35.504C29.1702 35.752 28.9902 36.104 28.9902 36.56C28.9902 36.864 29.0822 37.124 29.2662 37.34C29.4582 37.556 29.6942 37.736 29.9742 37.88C30.2542 38.024 30.6462 38.196 31.1502 38.396C31.7582 38.644 32.2462 38.868 32.6142 39.068C32.9822 39.268 33.2942 39.54 33.5502 39.884C33.8142 40.228 33.9462 40.652 33.9462 41.156C33.9462 42.1 33.5862 42.828 32.8662 43.34C32.1542 43.844 31.1982 44.096 29.9982 44.096ZM40.2053 41.324C40.3093 41.324 40.3893 41.372 40.4453 41.468C40.5093 41.564 40.5413 41.696 40.5413 41.864C40.5413 42.184 40.4653 42.432 40.3133 42.608C39.9693 43.032 39.5933 43.38 39.1853 43.652C38.7773 43.924 38.3093 44.06 37.7813 44.06C36.1493 44.06 35.3333 42.912 35.3333 40.616C35.3333 40.264 35.3453 39.908 35.3693 39.548H34.9013C34.6613 39.548 34.4973 39.504 34.4093 39.416C34.3293 39.328 34.2893 39.188 34.2893 38.996C34.2893 38.548 34.4693 38.324 34.8293 38.324H35.5133C35.6493 37.444 35.8573 36.64 36.1373 35.912C36.4173 35.184 36.7533 34.604 37.1453 34.172C37.5453 33.74 37.9733 33.524 38.4293 33.524C38.7653 33.524 39.0293 33.672 39.2213 33.968C39.4133 34.264 39.5093 34.636 39.5093 35.084C39.5093 36.324 38.9893 37.404 37.9493 38.324H39.2933C39.4213 38.324 39.5133 38.352 39.5693 38.408C39.6253 38.464 39.6533 38.568 39.6533 38.72C39.6533 39.272 39.2013 39.548 38.2973 39.548H36.8333C36.8173 39.948 36.8093 40.26 36.8093 40.484C36.8093 41.316 36.9053 41.9 37.0973 42.236C37.2973 42.572 37.6093 42.74 38.0333 42.74C38.3773 42.74 38.6813 42.636 38.9453 42.428C39.2093 42.22 39.5213 41.908 39.8813 41.492C39.9773 41.38 40.0853 41.324 40.2053 41.324ZM38.1053 34.676C37.9853 34.676 37.8493 34.828 37.6973 35.132C37.5533 35.428 37.4133 35.844 37.2773 36.38C37.1493 36.908 37.0413 37.496 36.9533 38.144C37.4253 37.736 37.7773 37.28 38.0093 36.776C38.2493 36.264 38.3693 35.8 38.3693 35.384C38.3693 34.912 38.2813 34.676 38.1053 34.676ZM40.4163 44.06C40.1123 44.06 39.8963 43.9 39.7683 43.58C39.6483 43.26 39.5883 42.748 39.5883 42.044C39.5883 41.004 39.7363 40.016 40.0323 39.08C40.1043 38.848 40.2203 38.68 40.3803 38.576C40.5483 38.464 40.7803 38.408 41.0763 38.408C41.2363 38.408 41.3483 38.428 41.4123 38.468C41.4763 38.508 41.5083 38.584 41.5083 38.696C41.5083 38.824 41.4483 39.112 41.3283 39.56C41.2483 39.88 41.1843 40.16 41.1363 40.4C41.0883 40.64 41.0483 40.936 41.0163 41.288C41.2803 40.6 41.5763 40.04 41.9043 39.608C42.2323 39.176 42.5523 38.868 42.8643 38.684C43.1843 38.5 43.4763 38.408 43.7403 38.408C44.2603 38.408 44.5203 38.668 44.5203 39.188C44.5203 39.292 44.4843 39.544 44.4123 39.944C44.3483 40.264 44.3163 40.464 44.3163 40.544C44.3163 40.824 44.4163 40.964 44.6163 40.964C44.8403 40.964 45.1283 40.788 45.4803 40.436C45.5843 40.332 45.6923 40.28 45.8043 40.28C45.9083 40.28 45.9883 40.328 46.0443 40.424C46.1083 40.512 46.1403 40.632 46.1403 40.784C46.1403 41.08 46.0603 41.312 45.9003 41.48C45.6763 41.712 45.4123 41.912 45.1083 42.08C44.8123 42.24 44.4963 42.32 44.1603 42.32C43.7363 42.32 43.4123 42.212 43.1883 41.996C42.9723 41.78 42.8643 41.488 42.8643 41.12C42.8643 41 42.8763 40.88 42.9003 40.76C42.9163 40.6 42.9243 40.492 42.9243 40.436C42.9243 40.308 42.8803 40.244 42.7923 40.244C42.6723 40.244 42.5123 40.38 42.3123 40.652C42.1203 40.916 41.9283 41.268 41.7363 41.708C41.5443 42.148 41.3883 42.612 41.2683 43.1C41.1803 43.476 41.0763 43.732 40.9563 43.868C40.8443 43.996 40.6643 44.06 40.4163 44.06ZM50.3772 41.324C50.4812 41.324 50.5612 41.372 50.6172 41.468C50.6812 41.564 50.7132 41.696 50.7132 41.864C50.7132 42.184 50.6372 42.432 50.4852 42.608C50.1892 42.968 49.7692 43.3 49.2252 43.604C48.6892 43.908 48.1132 44.06 47.4972 44.06C46.6572 44.06 46.0052 43.832 45.5412 43.376C45.0772 42.92 44.8452 42.296 44.8452 41.504C44.8452 40.952 44.9612 40.44 45.1932 39.968C45.4252 39.488 45.7452 39.108 46.1532 38.828C46.5692 38.548 47.0372 38.408 47.5572 38.408C48.0212 38.408 48.3932 38.548 48.6732 38.828C48.9532 39.1 49.0932 39.472 49.0932 39.944C49.0932 40.496 48.8932 40.972 48.4932 41.372C48.1012 41.764 47.4332 42.076 46.4892 42.308C46.6892 42.676 47.0692 42.86 47.6292 42.86C47.9892 42.86 48.3972 42.736 48.8532 42.488C49.3172 42.232 49.7172 41.9 50.0532 41.492C50.1492 41.38 50.2572 41.324 50.3772 41.324ZM47.3532 39.584C47.0572 39.584 46.8052 39.756 46.5972 40.1C46.3972 40.444 46.2972 40.86 46.2972 41.348V41.372C46.7692 41.26 47.1412 41.092 47.4132 40.868C47.6852 40.644 47.8212 40.384 47.8212 40.088C47.8212 39.936 47.7772 39.816 47.6892 39.728C47.6092 39.632 47.4972 39.584 47.3532 39.584ZM55.0882 41.324C55.1922 41.324 55.2722 41.372 55.3282 41.468C55.3922 41.564 55.4242 41.696 55.4242 41.864C55.4242 42.184 55.3482 42.432 55.1962 42.608C54.9002 42.968 54.4802 43.3 53.9362 43.604C53.4002 43.908 52.8242 44.06 52.2082 44.06C51.3682 44.06 50.7162 43.832 50.2522 43.376C49.7882 42.92 49.5562 42.296 49.5562 41.504C49.5562 40.952 49.6722 40.44 49.9042 39.968C50.1362 39.488 50.4562 39.108 50.8642 38.828C51.2802 38.548 51.7482 38.408 52.2682 38.408C52.7322 38.408 53.1042 38.548 53.3842 38.828C53.6642 39.1 53.8042 39.472 53.8042 39.944C53.8042 40.496 53.6042 40.972 53.2042 41.372C52.8122 41.764 52.1442 42.076 51.2002 42.308C51.4002 42.676 51.7802 42.86 52.3402 42.86C52.7002 42.86 53.1082 42.736 53.5642 42.488C54.0282 42.232 54.4282 41.9 54.7642 41.492C54.8602 41.38 54.9682 41.324 55.0882 41.324ZM52.0642 39.584C51.7682 39.584 51.5162 39.756 51.3082 40.1C51.1082 40.444 51.0082 40.86 51.0082 41.348V41.372C51.4802 41.26 51.8522 41.092 52.1242 40.868C52.3962 40.644 52.5322 40.384 52.5322 40.088C52.5322 39.936 52.4882 39.816 52.4002 39.728C52.3202 39.632 52.2082 39.584 52.0642 39.584ZM56.4271 39.548C56.4111 39.948 56.4031 40.26 56.4031 40.484C56.4031 41.06 56.4311 41.512 56.4871 41.84C56.5511 42.16 56.6511 42.392 56.7871 42.536C56.9311 42.672 57.1271 42.74 57.3751 42.74C57.5031 42.74 57.6551 42.7 57.8311 42.62C58.0071 42.54 58.1671 42.436 58.3111 42.308C58.3991 42.228 58.4871 42.188 58.5751 42.188C58.6711 42.188 58.7471 42.244 58.8031 42.356C58.8671 42.46 58.8991 42.588 58.8991 42.74C58.8991 42.892 58.8671 43.04 58.8031 43.184C58.7471 43.328 58.6591 43.448 58.5391 43.544C58.1231 43.888 57.6511 44.06 57.1231 44.06C56.3631 44.06 55.8071 43.744 55.4551 43.112C55.1031 42.472 54.9271 41.64 54.9271 40.616C54.9271 40.264 54.9391 39.908 54.9631 39.548H54.4951C54.2551 39.548 54.0911 39.504 54.0031 39.416C53.9231 39.328 53.8831 39.188 53.8831 38.996C53.8831 38.548 54.0631 38.324 54.4231 38.324H55.1071C55.2431 37.444 55.4511 36.64 55.7311 35.912C56.0111 35.184 56.3471 34.604 56.7391 34.172C57.1391 33.74 57.5671 33.524 58.0231 33.524C58.3591 33.524 58.6231 33.672 58.8151 33.968C59.0071 34.264 59.1031 34.636 59.1031 35.084C59.1031 36.324 58.5831 37.404 57.5431 38.324H58.8871C59.0151 38.324 59.1071 38.352 59.1631 38.408C59.2191 38.464 59.2471 38.568 59.2471 38.72C59.2471 39.272 58.7951 39.548 57.8911 39.548H56.4271ZM57.6991 34.676C57.5791 34.676 57.4431 34.828 57.2911 35.132C57.1471 35.428 57.0071 35.844 56.8711 36.38C56.7431 36.908 56.6351 37.496 56.5471 38.144C57.0191 37.736 57.3711 37.28 57.6031 36.776C57.8431 36.264 57.9631 35.8 57.9631 35.384C57.9631 34.912 57.8751 34.676 57.6991 34.676Z" fill="#2F2105"/>
</svg>
